<svg xmlns="http://www.w3.org/2000/svg" width="271.491" height="105" viewBox="0 0 271.491 105"><g transform="translate(-142 -435)"><g transform="translate(144 469.502)"><g transform="translate(2.881)"><g transform="translate(0 56.445)"><g transform="translate(0 0.166)"><path d="M130.694,804.726h1.327a7.964,7.964,0,0,1,1.563.109,1.715,1.715,0,0,1,.931.577,1.7,1.7,0,0,1,.367,1.107,1.772,1.772,0,0,1-.35,1.108,1.746,1.746,0,0,1-.989.583,8.019,8.019,0,0,1-1.7.114h-.48v3.109h-.672Zm.672.664v2.271l1.122.018a2.985,2.985,0,0,0,1.013-.123,1.028,1.028,0,0,0,.505-.408,1.209,1.209,0,0,0,0-1.25,1.028,1.028,0,0,0-.482-.388,2.778,2.778,0,0,0-.984-.12Z" transform="translate(-130.603 -804.643)" fill="#403030"/><path d="M131.363,811.44h-.852v-6.879h1.418a7.11,7.11,0,0,1,1.587.109,1.824,1.824,0,0,1,.983.6,1.854,1.854,0,0,1,.379,1.165,1.739,1.739,0,0,1-.376,1.161,1.794,1.794,0,0,1-1.028.609,7.921,7.921,0,0,1-1.719.128h-.393Zm-.672-.179h.491v-3.123h.574a8.322,8.322,0,0,0,1.677-.105,1.69,1.69,0,0,0,.936-.547,1.61,1.61,0,0,0,.322-1.049,1.513,1.513,0,0,0-.338-1.045,1.58,1.58,0,0,0-.883-.557,7.874,7.874,0,0,0-1.541-.092H130.69Zm1.706-3.579-1.215-.013v-2.449h1.267a2.983,2.983,0,0,1,1.021.12,1.063,1.063,0,0,1,.512.437,1.165,1.165,0,0,1,.2.659,1.216,1.216,0,0,1-.2.681,1.115,1.115,0,0,1-.536.44A3.074,3.074,0,0,1,132.4,807.682Zm-1.034-.189,1.042.008a3.139,3.139,0,0,0,.981-.116.961.961,0,0,0,.456-.371,1.1,1.1,0,0,0,0-1.146.93.93,0,0,0-.449-.363,2.914,2.914,0,0,0-.945-.113h-1.086Z" transform="translate(-130.511 -804.561)" fill="#403030"/></g><g transform="translate(18.376 0.166)"><path d="M170.882,804.726l3.127,6.706h-.732l-1.051-2.206h-2.883l-1.038,2.206h-.749l3.163-6.706Zm-.08,1.432-1.147,2.424h2.293Z" transform="translate(-167.41 -804.643)" fill="#403030"/><path d="M174,811.44h-.92l-1.055-2.2h-2.767l-1.055,2.2h-.944l3.255-6.879h.278Zm-.805-.179h.526l-3.049-6.519h-.041l-3.089,6.519h.555l1.044-2.2h3ZM171.94,808.6h-2.577l1.292-2.727Zm-2.291-.184h2.014l-1.008-2.129Z" transform="translate(-167.263 -804.561)" fill="#403030"/></g><g transform="translate(40.151 0.166)"><path d="M210.991,804.726h1.333a7.627,7.627,0,0,1,1.52.1,1.671,1.671,0,0,1,1.344,1.694,1.876,1.876,0,0,1-.261.964,1.667,1.667,0,0,1-.742.628,3.272,3.272,0,0,1-1.321.213l2.409,3.109h-.824l-2.417-3.109h-.366v3.109h-.675Zm.675.664v2.276l1.155.013a2.624,2.624,0,0,0,.989-.136,1.016,1.016,0,0,0,.506-.4,1.19,1.19,0,0,0,0-1.241,1.011,1.011,0,0,0-.5-.388,2.7,2.7,0,0,0-.976-.12Z" transform="translate(-210.902 -804.643)" fill="#403030"/><path d="M215.375,811.44h-1.047l-2.416-3.106h-.24v3.106h-.859v-6.879h1.422a8.514,8.514,0,0,1,1.536.09,1.824,1.824,0,0,1,1.019.619,1.775,1.775,0,0,1,.395,1.165,1.891,1.891,0,0,1-.269,1.005,1.621,1.621,0,0,1-.775.661,3.317,3.317,0,0,1-1.179.231Zm-.971-.179h.6l-2.409-3.1.181-.012a3.371,3.371,0,0,0,1.294-.2,1.653,1.653,0,0,0,.69-.594,1.687,1.687,0,0,0,.243-.915,1.636,1.636,0,0,0-.349-1.045,1.69,1.69,0,0,0-.924-.561,7.885,7.885,0,0,0-1.5-.088h-1.244v6.519h.493v-3.116H212Zm-1.672-3.579-1.248-.013v-2.449h1.271a2.964,2.964,0,0,1,1.016.12,1.033,1.033,0,0,1,.523.437,1.184,1.184,0,0,1,.2.657,1.306,1.306,0,0,1-.2.681,1.277,1.277,0,0,1-.529.443A3.078,3.078,0,0,1,212.732,807.682Zm-1.06-.189,1.06.008a3.026,3.026,0,0,0,.96-.116.918.918,0,0,0,.453-.371,1.032,1.032,0,0,0,.165-.581.974.974,0,0,0-.165-.564.928.928,0,0,0-.439-.363,2.926,2.926,0,0,0-.951-.113h-1.084Z" transform="translate(-210.813 -804.561)" fill="#403030"/></g><g transform="translate(59.331 0.166)"><path d="M252.766,804.726l3.136,6.706h-.725l-1.053-2.206h-2.89l-1.042,2.206h-.748l3.164-6.706Zm-.079,1.432-1.142,2.424h2.286Z" transform="translate(-249.309 -804.643)" fill="#403030"/><path d="M255.893,811.44h-.914l-1.059-2.2h-2.758l-1.062,2.2h-.927l3.247-6.879h.277Zm-.8-.179h.528l-3.046-6.519h-.051l-3.089,6.519H250l1.04-2.2h3.009Zm-1.253-2.664h-2.584l1.292-2.727Zm-2.295-.184h2l-1-2.129Z" transform="translate(-249.173 -804.561)" fill="#403030"/></g><g transform="translate(97.521)"><path d="M332.279,805.819l-.532.4a2.781,2.781,0,0,0-1.048-.86,3.074,3.074,0,0,0-1.345-.3,2.917,2.917,0,0,0-1.484.393,2.64,2.64,0,0,0-1.063,1.036,2.816,2.816,0,0,0-.381,1.464,2.767,2.767,0,0,0,.834,2.04,3.117,3.117,0,0,0,4.487-.285l.532.4a3.388,3.388,0,0,1-1.253.985,3.978,3.978,0,0,1-1.672.358,3.454,3.454,0,0,1-3.634-3.568,3.318,3.318,0,0,1,1.032-2.473,3.561,3.561,0,0,1,2.582-1.008,3.778,3.778,0,0,1,1.7.378A3.291,3.291,0,0,1,332.279,805.819Z" transform="translate(-325.636 -804.313)" fill="#403030"/><path d="M329.271,811.445a3.591,3.591,0,0,1-2.855-1.2,3.648,3.648,0,0,1-.863-2.446,3.412,3.412,0,0,1,1.063-2.544,3.663,3.663,0,0,1,2.635-1.022,4.013,4.013,0,0,1,1.75.373,3.53,3.53,0,0,1,1.264,1.072l.048.075-.666.508-.06-.065a2.67,2.67,0,0,0-1.014-.84,3.058,3.058,0,0,0-2.755.086,2.766,2.766,0,0,0-1.014,1,2.686,2.686,0,0,0-.376,1.421,2.648,2.648,0,0,0,.826,1.975,2.828,2.828,0,0,0,2.057.79,2.9,2.9,0,0,0,2.286-1.062l.049-.067.679.513-.06.064a3.47,3.47,0,0,1-1.285,1.016A4.024,4.024,0,0,1,329.271,811.445Zm-.021-7.04a3.5,3.5,0,0,0-2.521.979,3.283,3.283,0,0,0-1.01,2.411,3.479,3.479,0,0,0,.844,2.333,3.4,3.4,0,0,0,2.708,1.14,3.894,3.894,0,0,0,1.641-.345,3.194,3.194,0,0,0,1.154-.891l-.392-.3a3.2,3.2,0,0,1-4.553.234,2.833,2.833,0,0,1-.856-2.108,2.9,2.9,0,0,1,.387-1.507,2.832,2.832,0,0,1,1.086-1.075,3.1,3.1,0,0,1,1.533-.391,3.2,3.2,0,0,1,1.391.3,3.037,3.037,0,0,1,1.025.82l.378-.3a3.206,3.206,0,0,0-1.143-.952A3.959,3.959,0,0,0,329.25,804.4Z" transform="translate(-325.552 -804.228)" fill="#403030"/></g><g transform="translate(119.312)"><path d="M372.8,804.4a3.475,3.475,0,0,1,2.547,1.023,3.53,3.53,0,0,1-2.492,6.026,3.458,3.458,0,0,1-2.526-1.034,3.339,3.339,0,0,1-1.023-2.463,3.558,3.558,0,0,1,.462-1.787A3.445,3.445,0,0,1,372.8,804.4Zm.023.654a2.775,2.775,0,0,0-1.406.384,2.807,2.807,0,0,0-1.051,1.045,2.916,2.916,0,0,0-.371,1.469,2.7,2.7,0,0,0,.829,2.012,2.731,2.731,0,0,0,2,.83,2.869,2.869,0,0,0,1.444-.385,2.529,2.529,0,0,0,1.023-1.033,2.753,2.753,0,0,0,.388-1.453,2.878,2.878,0,0,0-1.423-2.485A2.87,2.87,0,0,0,372.825,805.052Z" transform="translate(-369.221 -804.313)" fill="#403030"/><path d="M372.77,811.445a3.526,3.526,0,0,1-2.585-1.05,3.432,3.432,0,0,1-1.051-2.529,3.649,3.649,0,0,1,.471-1.841,3.529,3.529,0,0,1,1.311-1.318,3.427,3.427,0,0,1,1.8-.479,3.568,3.568,0,0,1,2.606,1.041,3.613,3.613,0,0,1-2.55,6.175Zm-.056-7.04a3.383,3.383,0,0,0-2.955,1.713,3.553,3.553,0,0,0-.458,1.748,3.283,3.283,0,0,0,1.006,2.406,3.48,3.48,0,0,0,4.888-.013,3.468,3.468,0,0,0-.006-4.865A3.359,3.359,0,0,0,372.714,804.4Zm.023,6.394a2.9,2.9,0,0,1-2.915-2.934,2.978,2.978,0,0,1,.386-1.512,2.869,2.869,0,0,1,1.068-1.08,2.913,2.913,0,0,1,1.461-.393,2.947,2.947,0,0,1,1.478.393,2.888,2.888,0,0,1,1.075,1.074,2.852,2.852,0,0,1,.387,1.489,2.918,2.918,0,0,1-.387,1.5,2.718,2.718,0,0,1-1.069,1.069A2.917,2.917,0,0,1,372.737,810.8Zm0-5.738a2.615,2.615,0,0,0-1.371.375,2.925,2.925,0,0,0-1.017,1,3.025,3.025,0,0,0-.344,1.426,2.643,2.643,0,0,0,.786,1.948,2.674,2.674,0,0,0,1.945.8,2.725,2.725,0,0,0,1.4-.368,2.574,2.574,0,0,0,1-1,2.847,2.847,0,0,0,.362-1.413,2.709,2.709,0,0,0-.362-1.4,2.82,2.82,0,0,0-2.4-1.375Z" transform="translate(-369.134 -804.228)" fill="#403030"/></g><g transform="translate(141.585 0.166)"><path d="M413.886,811.432l.949-6.706h.126l2.711,5.508,2.711-5.508h.107l.961,6.706h-.658l-.662-4.792-2.37,4.792h-.173l-2.4-4.83-.652,4.83Z" transform="translate(-413.784 -804.643)" fill="#403030"/><path d="M421.453,811.44h-.843l-.633-4.583-2.263,4.583h-.284l-2.293-4.622-.63,4.622h-.825l.978-6.879h.254l2.657,5.388,2.65-5.388h.243Zm-.684-.179h.469l-.929-6.48-2.739,5.573-2.76-5.578-.927,6.484h.466l.7-5.039,2.491,5.039h.058l2.482-5Z" transform="translate(-413.681 -804.561)" fill="#403030"/></g><g transform="translate(164.657 0.166)"><path d="M460.011,804.726h1.329a7.806,7.806,0,0,1,1.552.109,1.706,1.706,0,0,1,.944.577,1.689,1.689,0,0,1,.365,1.107,1.63,1.63,0,0,1-1.334,1.691,8.145,8.145,0,0,1-1.707.114h-.48v3.109h-.668Zm.668.664v2.271l1.134.018a3.006,3.006,0,0,0,1.012-.123,1.011,1.011,0,0,0,.488-.408,1.1,1.1,0,0,0,0-1.25.943.943,0,0,0-.473-.388,2.694,2.694,0,0,0-.975-.12Z" transform="translate(-459.918 -804.643)" fill="#403030"/><path d="M460.674,811.44h-.849v-6.879h1.422a7.18,7.18,0,0,1,1.588.109,1.734,1.734,0,0,1,1.366,1.766,1.758,1.758,0,0,1-.387,1.161,1.781,1.781,0,0,1-1.023.609,7.86,7.86,0,0,1-1.723.128h-.393Zm-.668-.179h.494v-3.123h.568a8.331,8.331,0,0,0,1.68-.105,1.642,1.642,0,0,0,.932-.547,1.62,1.62,0,0,0,.341-1.049,1.559,1.559,0,0,0-.349-1.045,1.625,1.625,0,0,0-.882-.557,7.943,7.943,0,0,0-1.543-.092h-1.242Zm1.715-3.579-1.221-.013v-2.449h1.273a2.979,2.979,0,0,1,1.017.12,1.084,1.084,0,0,1,.51.437,1.241,1.241,0,0,1,.2.659,1.3,1.3,0,0,1-.2.681,1.194,1.194,0,0,1-.527.44A3.128,3.128,0,0,1,461.721,807.682Zm-1.047-.189,1.047.008a3.067,3.067,0,0,0,.977-.116.882.882,0,0,0,.457-.371.992.992,0,0,0,0-1.146.882.882,0,0,0-.442-.363,2.9,2.9,0,0,0-.94-.113h-1.1Z" transform="translate(-459.825 -804.561)" fill="#403030"/></g><g transform="translate(183.042 0.166)"><path d="M500.2,804.726l3.132,6.706h-.721l-1.056-2.206h-2.891l-1.047,2.206h-.745l3.164-6.706Zm-.074,1.432-1.151,2.424h2.285Z" transform="translate(-496.734 -804.643)" fill="#403030"/><path d="M503.327,811.44h-.921l-1.059-2.2h-2.768l-1.048,2.2H496.6l3.25-6.879h.281Zm-.8-.179h.53L500,804.742h-.041l-3.093,6.519h.56l1.04-2.2h3Zm-1.267-2.664h-2.572l1.3-2.727Zm-2.282-.184h2l-.984-2.129Z" transform="translate(-496.595 -804.561)" fill="#403030"/></g><g transform="translate(204.819 0.166)"><path d="M540.317,804.726h1.336a7.42,7.42,0,0,1,1.5.1,1.656,1.656,0,0,1,1.351,1.694,1.887,1.887,0,0,1-.246.964,1.693,1.693,0,0,1-.734.628,3.426,3.426,0,0,1-1.335.213l2.414,3.109h-.831l-2.411-3.109h-.391v3.109h-.654Zm.654.664v2.276l1.158.013a2.616,2.616,0,0,0,1-.136.96.96,0,0,0,.506-.4,1.151,1.151,0,0,0,0-1.241.969.969,0,0,0-.487-.388,2.742,2.742,0,0,0-.985-.12Z" transform="translate(-540.233 -804.643)" fill="#403030"/><path d="M544.7,811.44h-1.058l-2.408-3.106H541v3.106h-.847v-6.879h1.42a8.6,8.6,0,0,1,1.528.09,1.85,1.85,0,0,1,1.026.619,1.82,1.82,0,0,1,.388,1.165,1.86,1.86,0,0,1-.27,1.005,1.6,1.6,0,0,1-.776.661,3.3,3.3,0,0,1-1.174.231Zm-.968-.179h.6l-2.421-3.1.188-.012a3.308,3.308,0,0,0,1.286-.2,1.623,1.623,0,0,0,.706-.594,1.758,1.758,0,0,0,.241-.915,1.571,1.571,0,0,0-.358-1.045,1.648,1.648,0,0,0-.924-.561,7.734,7.734,0,0,0-1.488-.088h-1.255v6.519h.5v-3.116h.507Zm-1.691-3.579-1.231-.013v-2.449h1.269a2.968,2.968,0,0,1,1.021.12,1.061,1.061,0,0,1,.52.437,1.114,1.114,0,0,1,.19.657,1.225,1.225,0,0,1-.19.681,1.16,1.16,0,0,1-.554.443A2.887,2.887,0,0,1,542.044,807.682ZM541,807.493l1.066.008a2.961,2.961,0,0,0,.958-.116.968.968,0,0,0,.456-.371,1.047,1.047,0,0,0,.158-.581.987.987,0,0,0-.158-.564.953.953,0,0,0-.443-.363,2.873,2.873,0,0,0-.95-.113H541Z" transform="translate(-540.149 -804.561)" fill="#403030"/></g><g transform="translate(224.014 0.166)"><path d="M578.727,805.39v-.664h3.67v.664h-1.5v6.042h-.682V805.39Z" transform="translate(-578.633 -804.643)" fill="#403030"/><path d="M580.893,811.44h-.859v-6.046H578.54v-.833H582.4v.833h-1.5Zm-.68-.179h.5v-6.041h1.51v-.478h-3.493v.478h1.487Z" transform="translate(-578.54 -804.561)" fill="#403030"/></g><g transform="translate(242.738 0.166)"><path d="M616.184,804.726h.659v6.706h-.659Z" transform="translate(-616.086 -804.643)" fill="#403030"/><path d="M616.848,811.44h-.861v-6.879h.861Zm-.681-.179h.5v-6.519h-.5Z" transform="translate(-615.987 -804.561)" fill="#403030"/></g><g transform="translate(259.172 0.166)"><path d="M649.048,804.726h1.327a7.513,7.513,0,0,1,1.512.1,1.732,1.732,0,0,1,.979.587,1.648,1.648,0,0,1,.375,1.107,1.794,1.794,0,0,1-.263.964,1.632,1.632,0,0,1-.739.628,3.268,3.268,0,0,1-1.322.213l2.406,3.109h-.829l-2.406-3.109h-.377v3.109h-.663Zm.663.664v2.276l1.15.013a2.59,2.59,0,0,0,1-.136,1.027,1.027,0,0,0,.506-.4,1.158,1.158,0,0,0,0-1.241,1.043,1.043,0,0,0-.487-.388,2.745,2.745,0,0,0-.983-.12Z" transform="translate(-648.951 -804.643)" fill="#403030"/><path d="M653.413,811.44H652.36l-2.4-3.106h-.247v3.106h-.857v-6.879h1.424a8.778,8.778,0,0,1,1.544.09,1.87,1.87,0,0,1,1.017.619,1.791,1.791,0,0,1,.382,1.165,1.859,1.859,0,0,1-.258,1.005,1.687,1.687,0,0,1-.791.661,3.279,3.279,0,0,1-1.172.231Zm-.963-.179h.6l-2.414-3.1.18-.012a3.447,3.447,0,0,0,1.3-.2,1.726,1.726,0,0,0,.693-.594,1.809,1.809,0,0,0,.244-.915,1.563,1.563,0,0,0-.361-1.045,1.677,1.677,0,0,0-.921-.561,7.824,7.824,0,0,0-1.495-.088h-1.252v6.519h.51v-3.116h.5Zm-1.685-3.579-1.229-.013v-2.449H650.8a3.025,3.025,0,0,1,1.021.12,1.105,1.105,0,0,1,.512.437,1.166,1.166,0,0,1,.195.657,1.284,1.284,0,0,1-.195.681,1.157,1.157,0,0,1-.544.443A2.892,2.892,0,0,1,650.765,807.682Zm-1.053-.189,1.065.008a2.9,2.9,0,0,0,.952-.116.945.945,0,0,0,.467-.371,1.138,1.138,0,0,0,.165-.581,1.041,1.041,0,0,0-.169-.564.932.932,0,0,0-.44-.363,2.905,2.905,0,0,0-.951-.113h-1.089Z" transform="translate(-648.854 -804.561)" fill="#403030"/></g></g><path d="M144.751,736.987h-8.8a.485.485,0,0,1-.48-.491V693.033a.5.5,0,0,0-.488-.486H131a.493.493,0,0,0-.485.486v48.061a.487.487,0,0,0,.485.482h13.755a.486.486,0,0,0,.486-.482v-3.619A.491.491,0,0,0,144.751,736.987Z" transform="translate(-130.511 -691.943)" fill="#403030"/><path d="M188.361,722.815H186.4V703.408a25.573,25.573,0,0,0-.354-4.925,8.877,8.877,0,0,0-1.472-3.237,9.255,9.255,0,0,0-8.022-3.907,10.67,10.67,0,0,0-3.581.6,10.32,10.32,0,0,0-2.993,1.8,9.168,9.168,0,0,0-2.11,2.728,7.066,7.066,0,0,0-.7,1.831,11.79,11.79,0,0,0-.272,2.193c-.07.867-.109,1.939-.109,3.229v19.09H164.84a.491.491,0,0,0-.491.488v3.616a.486.486,0,0,0,.491.49h1.954V740.49a.493.493,0,0,0,.483.482h3.945a.486.486,0,0,0,.491-.482V727.409h9.809V740.49a.484.484,0,0,0,.49.482h3.9a.479.479,0,0,0,.491-.482V727.409h1.958a.475.475,0,0,0,.476-.49V723.3A.48.48,0,0,0,188.361,722.815Zm-6.84,0h-9.809V701.394a5.626,5.626,0,0,1,1.4-3.991,4.834,4.834,0,0,1,3.7-1.509,4.347,4.347,0,0,1,3.456,1.486,5.966,5.966,0,0,1,1.254,3.984v21.451Z" transform="translate(-147.43 -691.339)" fill="#403030"/><path d="M632.99,722.815h-1.96V703.408a24.57,24.57,0,0,0-.355-4.925,8.847,8.847,0,0,0-1.472-3.237,9.243,9.243,0,0,0-8.012-3.907,10.767,10.767,0,0,0-3.6.6,10.21,10.21,0,0,0-2.973,1.8,9.025,9.025,0,0,0-2.119,2.728,6.372,6.372,0,0,0-.683,1.831,9.889,9.889,0,0,0-.289,2.193c-.075.867-.1,1.939-.1,3.229v19.09H609.46a.5.5,0,0,0-.486.488v3.616a.491.491,0,0,0,.486.49h1.967V740.49a.477.477,0,0,0,.477.482h3.954a.489.489,0,0,0,.485-.482V727.409h9.805V740.49a.486.486,0,0,0,.5.482h3.9a.489.489,0,0,0,.488-.482V727.409h1.96a.484.484,0,0,0,.484-.49V723.3A.489.489,0,0,0,632.99,722.815Zm-6.841,0h-9.805V701.394a5.588,5.588,0,0,1,1.408-3.991,4.779,4.779,0,0,1,3.684-1.509,4.335,4.335,0,0,1,3.456,1.486,5.91,5.91,0,0,1,1.258,3.984v21.451Z" transform="translate(-369.742 -691.339)" fill="#403030"/><path d="M333.573,694.707a25.067,25.067,0,0,0-25.1,0,24.974,24.974,0,0,0-9.2,9.2,24.349,24.349,0,0,0-3.379,12.529,25.022,25.022,0,0,0,1.905,9.594,24.766,24.766,0,0,0,5.494,8.153,24.874,24.874,0,0,0,17.745,7.4,24.431,24.431,0,0,0,12.534-3.38,25.014,25.014,0,0,0,9.209-9.193,25.074,25.074,0,0,0,0-25.108A25.069,25.069,0,0,0,333.573,694.707Zm4.958,31.87a20.018,20.018,0,0,1-7.358,7.4,20.178,20.178,0,0,1-20.267,0,20.127,20.127,0,0,1-7.359-7.4,20.176,20.176,0,0,1,0-20.271,20.973,20.973,0,0,1,7.359-7.4,20.411,20.411,0,0,1,20.267,0,20.834,20.834,0,0,1,7.358,7.4,20.058,20.058,0,0,1,0,20.271Z" transform="translate(-213.203 -691.339)" fill="#403030"/><path d="M434.56,692.547h-3.911a1.154,1.154,0,0,0-.79.386l-7.668,9.646a.382.382,0,0,1-.623,0l-7.652-9.646a1.127,1.127,0,0,0-.786-.386h-3.961a.5.5,0,0,0-.479.486v48.061a.491.491,0,0,0,.479.482h3.961a.482.482,0,0,0,.479-.482V700.688c0-.27.137-.318.3-.1l7.671,9.968a.351.351,0,0,0,.591,0l7.69-9.968c.186-.215.31-.167.31.1v40.405a.478.478,0,0,0,.479.482h3.911a.481.481,0,0,0,.483-.482V693.033A.487.487,0,0,0,434.56,692.547Z" transform="translate(-269.6 -691.943)" fill="#403030"/><path d="M480.505,692.547H476.57a.488.488,0,0,0-.491.486v48.061a.482.482,0,0,0,.491.482h3.935a.486.486,0,0,0,.493-.482V693.033A.492.492,0,0,0,480.505,692.547Z" transform="translate(-303.295 -691.943)" fill="#403030"/><path d="M513.822,692.547H495.18a.489.489,0,0,0-.479.486v3.63a.485.485,0,0,0,.479.486h6.384a.492.492,0,0,1,.491.489v43.456a.491.491,0,0,0,.482.482h3.95a.481.481,0,0,0,.488-.482V697.638a.494.494,0,0,1,.487-.489h6.36a.493.493,0,0,0,.5-.486v-3.63A.5.5,0,0,0,513.822,692.547Z" transform="translate(-312.605 -691.943)" fill="#403030"/><path d="M547.178,692.547h-3.951a.485.485,0,0,0-.484.486v48.061a.479.479,0,0,0,.484.482h3.951a.488.488,0,0,0,.49-.482V693.033A.494.494,0,0,0,547.178,692.547Z" transform="translate(-336.627 -691.943)" fill="#403030"/><path d="M582.579,692.547H578.85a.609.609,0,0,0-.572.486l-5.986,37.151c-.043.269-.109.269-.152,0l-6.022-37.151a.6.6,0,0,0-.565-.486H561.5a.4.4,0,0,0-.4.486l8.234,48.066a.6.6,0,0,0,.573.477h4.223a.594.594,0,0,0,.578-.477l8.272-48.066A.4.4,0,0,0,582.579,692.547Z" transform="translate(-345.802 -691.943)" fill="#403030"/><path d="M276.677,696.55v-4.107a.359.359,0,0,0-.474-.364,32.926,32.926,0,0,0-4.4,1.488,25.572,25.572,0,0,0-7.945,5.35,24.976,24.976,0,0,0-5.424,8.144A25.358,25.358,0,0,0,271.8,740.073a23.173,23.173,0,0,0,3.159,1.139h0c.723.218,1.238.349,1.238.349a.363.363,0,0,0,.474-.371V737.1a.776.776,0,0,0-.451-.655,30.663,30.663,0,0,1-4.421-1.9,20.952,20.952,0,0,1-7.547-7.4,20.216,20.216,0,0,1,3.207-24.8,20.761,20.761,0,0,1,4.341-3.259c.734-.378,1.207-.6,1.4-.677.838-.365,2.729-1.072,2.938-1.16h0a.326.326,0,0,0,.075-.027A.805.805,0,0,0,276.677,696.55Z" transform="translate(-193.484 -691.7)" fill="#403030"/></g><line x1="269.491" transform="translate(0 70.498)" fill="#fff"/></g><text transform="translate(142 457)" fill="#403030" font-size="20" font-family="SegoeUI, Segoe UI"><tspan x="0" y="0">Restaurante</tspan></text></g></svg>