<svg xmlns="http://www.w3.org/2000/svg" xmlns:xlink="http://www.w3.org/1999/xlink" viewBox="0,0,256,256" width="23px" height="23px"><g fill="none" fill-rule="nonzero" stroke="#262028" stroke-width="32" stroke-linecap="butt" stroke-linejoin="miter" stroke-miterlimit="10" stroke-dasharray="" stroke-dashoffset="0" font-family="none" font-weight="none" font-size="none" text-anchor="none" style="mix-blend-mode: normal"><path d="M120.42141,236.26563c-55.60791,0 -100.68704,-45.07912 -100.68704,-100.68704v-15.15719c0,-55.60791 45.07912,-100.68704 100.68704,-100.68704h15.15719c55.60791,0 100.68704,45.07912 100.68704,100.68704v15.15719c0,55.60791 -45.07912,100.68704 -100.68704,100.68704z" id="shape"></path></g><g fill="none" fill-rule="none" stroke="none" stroke-width="1" stroke-linecap="butt" stroke-linejoin="miter" stroke-miterlimit="10" stroke-dasharray="" stroke-dashoffset="0" font-family="none" font-weight="none" font-size="none" text-anchor="none" style="mix-blend-mode: normal"><g transform="scale(5.33333,5.33333)"><path d="M38,42h-28c-2.209,0 -4,-1.791 -4,-4v-28c0,-2.209 1.791,-4 4,-4h28c2.209,0 4,1.791 4,4v28c0,2.209 -1.791,4 -4,4z" fill="#212121" fill-rule="evenodd"></path><path d="M34.257,34h-6.437l-13.991,-20h6.437zM28.587,32.304h2.563l-11.651,-16.608h-2.563z" fill="#ffffff" fill-rule="nonzero"></path><path d="M15.866,34l7.203,-8.344l-0.942,-1.249l-8.304,9.593z" fill="#ffffff" fill-rule="nonzero"></path><path d="M24.45,21.721l0.905,1.289l7.781,-9.01h-2z" fill="#ffffff" fill-rule="nonzero"></path></g></g></svg>