<?xml version="1.0" standalone="no"?>
<!DOCTYPE svg PUBLIC "-//W3C//DTD SVG 20010904//EN"
 "http://www.w3.org/TR/2001/REC-SVG-20010904/DTD/svg10.dtd">
<svg version="1.0" xmlns="http://www.w3.org/2000/svg"
 width="1024.000000pt" height="1024.000000pt" viewBox="0 0 1024.000000 1024.000000"
 preserveAspectRatio="xMidYMid meet">

<g transform="translate(0.000000,1024.000000) scale(0.100000,-0.100000)"
fill="#000000" stroke="none">
<path d="M4915 7114 c-266 -48 -512 -198 -676 -413 -70 -92 -154 -267 -186
-386 -26 -97 -27 -111 -31 -432 l-4 -333 -211 -1 c-117 -1 -227 0 -245 1 l-33
2 4 -619 c3 -597 4 -621 26 -718 73 -328 208 -574 440 -805 237 -235 510 -382
836 -446 126 -26 432 -26 565 -1 294 55 596 209 807 411 262 250 408 515 484
881 23 106 23 129 27 703 l3 593 -38 -2 c-21 -1 -134 -2 -250 -1 l-213 2 0
309 c0 226 -4 329 -14 383 -88 461 -460 812 -930 877 -104 15 -263 12 -361 -5z
m341 -265 c278 -49 504 -223 623 -481 67 -143 73 -186 78 -520 l5 -298 -836 0
-836 0 0 269 c0 306 11 393 64 525 102 253 327 443 591 499 83 18 228 21 311
6z m1194 -1986 c0 -443 -7 -528 -56 -698 -135 -466 -548 -835 -1044 -932 -128
-25 -356 -22 -487 6 -255 54 -470 170 -659 356 -158 156 -266 325 -332 520
-64 188 -65 198 -69 698 l-4 457 1325 0 1326 0 0 -407z"/>
<path d="M5005 5119 c-185 -31 -345 -133 -453 -290 l-31 -47 82 -55 82 -55 20
26 c166 225 416 293 639 174 114 -60 230 -211 251 -324 l7 -38 -108 -1 -109 0
140 -135 c145 -141 223 -210 229 -203 58 76 246 330 246 334 0 3 -44 5 -98 5
l-98 0 -13 62 c-37 181 -143 337 -299 439 -147 97 -323 136 -487 108z"/>
<path d="M4341 4468 l-130 -173 103 -3 103 -3 11 -62 c6 -34 32 -105 58 -157
38 -77 62 -109 128 -175 142 -141 291 -200 501 -199 101 1 133 6 200 27 93 30
184 83 259 149 57 50 137 159 121 165 -5 2 -41 23 -80 47 l-70 43 -70 -71
c-81 -83 -133 -115 -229 -145 -232 -72 -485 39 -596 261 -22 44 -40 91 -40
104 0 23 2 23 105 26 l104 3 -174 168 -174 168 -130 -173z"/>
</g>
</svg>
