<svg xmlns="http://www.w3.org/2000/svg" width="1024" height="1024" viewBox="0 0 1024 1024" version="1.1"><path d="M 470.850 210.523 C 442.833 214.345, 417.556 226.730, 397.422 246.500 C 380.314 263.298, 368.367 284.018, 362.249 307.500 C 359.660 317.438, 359.641 317.803, 359.072 366.753 L 358.500 416.006 348.436 416.427 C 328.837 417.248, 316.449 422.483, 303.411 435.453 C 294.675 444.144, 290.299 451.582, 287.522 462.460 C 285.244 471.383, 285.258 688.228, 287.537 697.897 C 292.414 718.587, 311.063 737.219, 332.064 742.385 C 341.619 744.736, 362.121 744.583, 367.541 742.120 C 373.740 739.305, 378.989 731.684, 378.989 725.500 C 378.989 722.581, 376.610 716.689, 374.342 713.995 C 369.818 708.618, 366.679 707.583, 353 706.957 C 338.946 706.313, 334.684 704.821, 329.261 698.645 C 323.239 691.785, 323.500 697.170, 323.500 580 C 323.500 483.628, 323.665 472.138, 325.098 469 C 327.573 463.582, 331.538 459.449, 336.744 456.863 L 341.500 454.500 491.439 454.234 C 656.955 453.940, 648.079 453.619, 655.554 460.182 C 657.514 461.903, 660.104 465.153, 661.309 467.405 C 663.357 471.232, 663.521 473.054, 663.815 495.229 L 664.130 518.957 666.700 520.979 C 668.999 522.787, 670.735 523, 683.180 523 C 696.761 523, 697.151 522.939, 699.643 520.448 L 702.196 517.895 701.765 492.198 C 701.383 469.393, 701.095 465.768, 699.204 460 C 692.680 440.103, 676.490 424.707, 655.430 418.373 C 649.901 416.710, 640.924 416.567, 522.671 416.258 L 395.842 415.927 396.259 370.214 C 396.650 327.344, 396.811 323.982, 398.839 316.182 C 403.378 298.727, 412.290 283.676, 425.478 271.193 C 444.034 253.628, 473.560 244.091, 500.280 247.031 C 527.951 250.076, 551.792 262.754, 566.605 282.301 C 572.208 289.695, 580.264 306.137, 582.381 314.500 C 584.134 321.427, 586 335.483, 586 341.764 C 586 349.024, 591.702 357.438, 598.315 359.936 C 607.457 363.390, 618.473 358.293, 622.452 348.768 C 625.433 341.636, 623.761 322.890, 618.502 304.470 C 615.099 292.554, 604.630 271.425, 597.211 261.500 C 590.103 251.991, 575.866 238.020, 567.498 232.341 C 549.553 220.162, 527.590 212.308, 505.144 210.044 C 492.092 208.728, 483.083 208.854, 470.850 210.523 M 450.116 549.035 C 431.154 554.024, 415.846 568.123, 408.894 587 L 406.500 593.500 406.500 643.500 C 406.500 693.211, 406.513 693.540, 408.833 700.500 C 410.116 704.350, 412.562 709.975, 414.268 713 C 418.805 721.046, 430.123 731.867, 438.603 736.268 C 452.222 743.336, 443.811 742.969, 592.356 742.985 C 710.786 742.998, 726.910 742.819, 732.270 741.430 C 752.028 736.310, 767.923 721.373, 774.747 701.513 L 777.500 693.500 777.500 643.500 L 777.500 593.500 774.815 586.803 C 767.733 569.142, 754.756 556.275, 737.432 549.738 L 731.500 547.500 594.500 547.296 C 461.697 547.099, 457.274 547.152, 450.116 549.035 M 456.655 585.447 C 451.698 587.230, 448.200 590.496, 445.890 595.500 C 444.182 599.201, 444.042 602.901, 444.022 644.934 C 444.001 689.213, 444.054 690.480, 446.121 694.750 C 447.399 697.390, 449.855 700.199, 452.298 701.816 L 456.354 704.500 591.591 704.500 L 726.828 704.500 731.164 701.487 C 733.699 699.725, 736.435 696.626, 737.750 694.025 C 739.983 689.609, 740 689.248, 740 644.853 C 740 615.750, 739.629 599.147, 738.939 597.315 C 737.491 593.476, 732.239 588.106, 728 586.131 C 724.827 584.653, 712.152 584.480, 592.500 584.283 C 482.287 584.101, 459.865 584.293, 456.655 585.447 M 500.806 621.414 C 498.224 622.101, 495.299 623.278, 494.306 624.031 C 485.580 630.645, 482.640 635.930, 482.640 645 C 482.640 652.454, 484.816 657.574, 490.162 662.699 C 499.958 672.089, 516.157 671.419, 525.081 661.255 C 529.441 656.289, 531.002 652.071, 530.990 645.282 C 530.963 628.894, 516.294 617.295, 500.806 621.414 M 583.044 622.577 C 573.302 626.803, 568 634.760, 568 645.151 C 568 656.518, 574.705 665.400, 585.709 668.609 C 605.922 674.504, 623.733 652.955, 614.110 634.247 C 608.559 623.454, 593.802 617.911, 583.044 622.577 M 667.537 623.056 C 652.594 630.511, 648.736 648.954, 659.604 660.983 C 674.913 677.929, 702.288 667.679, 702.288 645 C 702.288 635.320, 697.277 627.435, 688.541 623.367 C 682.070 620.354, 673.218 620.223, 667.537 623.056" stroke="none" fill="#555655" fill-rule="evenodd"/><path d="M 0 512.001 L 0 1024.002 512.250 1023.751 L 1024.500 1023.500 1024.751 511.750 L 1025.002 0 512.501 0 L 0 0 0 512.001 M 0.496 512.500 C 0.496 794.100, 0.610 909.151, 0.750 768.168 C 0.890 627.186, 0.890 396.786, 0.750 256.168 C 0.610 115.551, 0.496 230.900, 0.496 512.500 M 470.850 210.523 C 442.833 214.345, 417.556 226.730, 397.422 246.500 C 380.314 263.298, 368.367 284.018, 362.249 307.500 C 359.660 317.438, 359.641 317.803, 359.072 366.753 L 358.500 416.006 348.436 416.427 C 328.837 417.248, 316.449 422.483, 303.411 435.453 C 294.675 444.144, 290.299 451.582, 287.522 462.460 C 285.244 471.383, 285.258 688.228, 287.537 697.897 C 292.414 718.587, 311.063 737.219, 332.064 742.385 C 341.619 744.736, 362.121 744.583, 367.541 742.120 C 373.740 739.305, 378.989 731.684, 378.989 725.500 C 378.989 722.581, 376.610 716.689, 374.342 713.995 C 369.818 708.618, 366.679 707.583, 353 706.957 C 338.946 706.313, 334.684 704.821, 329.261 698.645 C 323.239 691.785, 323.500 697.170, 323.500 580 C 323.500 483.628, 323.665 472.138, 325.098 469 C 327.573 463.582, 331.538 459.449, 336.744 456.863 L 341.500 454.500 491.439 454.234 C 656.955 453.940, 648.079 453.619, 655.554 460.182 C 657.514 461.903, 660.104 465.153, 661.309 467.405 C 663.357 471.232, 663.521 473.054, 663.815 495.229 L 664.130 518.957 666.700 520.979 C 668.999 522.787, 670.735 523, 683.180 523 C 696.761 523, 697.151 522.939, 699.643 520.448 L 702.196 517.895 701.765 492.198 C 701.383 469.393, 701.095 465.768, 699.204 460 C 692.680 440.103, 676.490 424.707, 655.430 418.373 C 649.901 416.710, 640.924 416.567, 522.671 416.258 L 395.842 415.927 396.259 370.214 C 396.650 327.344, 396.811 323.982, 398.839 316.182 C 403.378 298.727, 412.290 283.676, 425.478 271.193 C 444.034 253.628, 473.560 244.091, 500.280 247.031 C 527.951 250.076, 551.792 262.754, 566.605 282.301 C 572.208 289.695, 580.264 306.137, 582.381 314.500 C 584.134 321.427, 586 335.483, 586 341.764 C 586 349.024, 591.702 357.438, 598.315 359.936 C 607.457 363.390, 618.473 358.293, 622.452 348.768 C 625.433 341.636, 623.761 322.890, 618.502 304.470 C 615.099 292.554, 604.630 271.425, 597.211 261.500 C 590.103 251.991, 575.866 238.020, 567.498 232.341 C 549.553 220.162, 527.590 212.308, 505.144 210.044 C 492.092 208.728, 483.083 208.854, 470.850 210.523 M 450.116 549.035 C 431.154 554.024, 415.846 568.123, 408.894 587 L 406.500 593.500 406.500 643.500 C 406.500 693.211, 406.513 693.540, 408.833 700.500 C 410.116 704.350, 412.562 709.975, 414.268 713 C 418.805 721.046, 430.123 731.867, 438.603 736.268 C 452.222 743.336, 443.811 742.969, 592.356 742.985 C 710.786 742.998, 726.910 742.819, 732.270 741.430 C 752.028 736.310, 767.923 721.373, 774.747 701.513 L 777.500 693.500 777.500 643.500 L 777.500 593.500 774.815 586.803 C 767.733 569.142, 754.756 556.275, 737.432 549.738 L 731.500 547.500 594.500 547.296 C 461.697 547.099, 457.274 547.152, 450.116 549.035 M 456.655 585.447 C 451.698 587.230, 448.200 590.496, 445.890 595.500 C 444.182 599.201, 444.042 602.901, 444.022 644.934 C 444.001 689.213, 444.054 690.480, 446.121 694.750 C 447.399 697.390, 449.855 700.199, 452.298 701.816 L 456.354 704.500 591.591 704.500 L 726.828 704.500 731.164 701.487 C 733.699 699.725, 736.435 696.626, 737.750 694.025 C 739.983 689.609, 740 689.248, 740 644.853 C 740 615.750, 739.629 599.147, 738.939 597.315 C 737.491 593.476, 732.239 588.106, 728 586.131 C 724.827 584.653, 712.152 584.480, 592.500 584.283 C 482.287 584.101, 459.865 584.293, 456.655 585.447 M 500.806 621.414 C 498.224 622.101, 495.299 623.278, 494.306 624.031 C 485.580 630.645, 482.640 635.930, 482.640 645 C 482.640 652.454, 484.816 657.574, 490.162 662.699 C 499.958 672.089, 516.157 671.419, 525.081 661.255 C 529.441 656.289, 531.002 652.071, 530.990 645.282 C 530.963 628.894, 516.294 617.295, 500.806 621.414 M 583.044 622.577 C 573.302 626.803, 568 634.760, 568 645.151 C 568 656.518, 574.705 665.400, 585.709 668.609 C 605.922 674.504, 623.733 652.955, 614.110 634.247 C 608.559 623.454, 593.802 617.911, 583.044 622.577 M 667.537 623.056 C 652.594 630.511, 648.736 648.954, 659.604 660.983 C 674.913 677.929, 702.288 667.679, 702.288 645 C 702.288 635.320, 697.277 627.435, 688.541 623.367 C 682.070 620.354, 673.218 620.223, 667.537 623.056" stroke="none" fill="#fbfbfb" fill-rule="evenodd"/></svg>