<svg width="205" height="24" viewBox="0 0 205 24" fill="none" xmlns="http://www.w3.org/2000/svg">
<path d="M11.7604 6.91708C11.7365 6.73499 11.6126 6.5855 11.445 6.53629L6.07809 4.95774C6.00128 4.93498 5.92099 4.93498 5.84419 4.95774L0.477234 6.53629C0.309662 6.5855 0.185729 6.73499 0.161873 6.91708C0.131035 7.15392 -0.579399 12.7453 1.24236 15.5271C3.0618 18.3052 5.74585 19.0176 5.85873 19.0465C5.92623 19.0637 5.99605 19.0637 6.06354 19.0465C6.177 19.0176 8.86106 18.3058 10.6799 15.5271C12.5011 12.7453 11.7912 7.15392 11.7604 6.91708ZM9.42196 10.1818L5.76098 14.0525C5.67603 14.1423 5.56432 14.1878 5.4526 14.1878C5.34089 14.1878 5.22917 14.1429 5.14423 14.0525L2.88084 11.6595C2.71036 11.4792 2.71036 11.1876 2.88084 11.0074L3.33003 10.5319C3.50051 10.3516 3.77689 10.3516 3.94737 10.5319L5.4526 12.1233L8.35544 9.0542C8.52592 8.87395 8.80171 8.87395 8.97219 9.0542L9.42138 9.52973C9.59186 9.70998 9.59186 10.0022 9.42138 10.1824L9.42196 10.1818Z" fill="#969696"/>
<path d="M17.9578 8.43799C18.8731 8.43799 19.5409 8.62679 19.9613 9.00439C20.3818 9.382 20.592 9.91097 20.592 10.5913C20.592 10.9006 20.5435 11.1951 20.4465 11.4751C20.3527 11.7518 20.1974 11.9976 19.9808 12.2124C19.7641 12.424 19.4779 12.5916 19.1221 12.7153C18.7696 12.839 18.3346 12.9009 17.8172 12.9009H17.0604V15.5767H15.8961V8.43799H17.9578ZM17.8802 9.40967H17.0604V11.9243H17.6959C18.0613 11.9243 18.3718 11.882 18.6273 11.7974C18.8828 11.7095 19.0768 11.5711 19.2094 11.3823C19.342 11.1935 19.4083 10.9445 19.4083 10.6353C19.4083 10.2218 19.2838 9.91423 19.0348 9.7124C18.789 9.51058 18.4041 9.40967 17.8802 9.40967Z" fill="#969696"/>
<path d="M26.2333 15.5767L25.5396 13.5942H22.8278L22.1341 15.5767H20.9068L23.5458 8.40869H24.8362L27.4703 15.5767H26.2333ZM25.2388 12.5884L24.5645 10.6353C24.5386 10.5506 24.5015 10.4318 24.4529 10.2788C24.4044 10.1226 24.3559 9.96468 24.3074 9.80518C24.2589 9.64242 24.2185 9.5057 24.1861 9.39502C24.1538 9.52848 24.1134 9.67822 24.0649 9.84424C24.0196 10.007 23.9743 10.16 23.929 10.3032C23.887 10.4465 23.8546 10.5571 23.832 10.6353L23.1528 12.5884H25.2388Z" fill="#969696"/>
<path d="M31.0984 11.6997H33.7471V15.2837C33.3752 15.4074 32.9904 15.5034 32.5926 15.5718C32.1948 15.6401 31.7485 15.6743 31.2537 15.6743C30.5325 15.6743 29.9212 15.5311 29.42 15.2446C28.9219 14.9549 28.5435 14.5366 28.2848 13.9897C28.0261 13.4396 27.8967 12.7772 27.8967 12.0024C27.8967 11.257 28.0406 10.6108 28.3285 10.064C28.6163 9.51383 29.0351 9.08903 29.5849 8.78955C30.1347 8.48682 30.8009 8.33545 31.5835 8.33545C31.9684 8.33545 32.3403 8.37451 32.6993 8.45264C33.0615 8.52751 33.393 8.63167 33.6938 8.76514L33.2863 9.73193C33.047 9.618 32.7785 9.52197 32.481 9.44385C32.1835 9.36572 31.8746 9.32666 31.5544 9.32666C31.0467 9.32666 30.6085 9.43734 30.2398 9.65869C29.8743 9.88005 29.593 10.1925 29.3957 10.5962C29.1984 10.9966 29.0998 11.4702 29.0998 12.0171C29.0998 12.5477 29.179 13.0132 29.3375 13.4136C29.496 13.814 29.7434 14.1265 30.0797 14.3511C30.4193 14.5724 30.8575 14.6831 31.3944 14.6831C31.6628 14.6831 31.8908 14.6685 32.0784 14.6392C32.2659 14.6099 32.439 14.5773 32.5974 14.5415V12.7007H31.0984V11.6997Z" fill="#969696"/>
<path d="M41.5715 11.9976C41.5715 12.5477 41.5019 13.049 41.3629 13.5015C41.227 13.9507 41.0217 14.3381 40.7468 14.6636C40.4719 14.9858 40.1274 15.2349 39.7135 15.4106C39.2995 15.5864 38.8144 15.6743 38.2581 15.6743C37.6922 15.6743 37.2006 15.5864 36.7834 15.4106C36.3694 15.2349 36.025 14.9842 35.7501 14.6587C35.4785 14.3332 35.2747 13.9442 35.1389 13.4917C35.0031 13.0392 34.9351 12.5379 34.9351 11.9878C34.9351 11.2521 35.0548 10.6108 35.2941 10.064C35.5367 9.51383 35.9037 9.0874 36.3953 8.78467C36.8901 8.47868 37.5143 8.32568 38.2678 8.32568C39.0052 8.32568 39.6181 8.47705 40.1064 8.77979C40.5948 9.08252 40.9602 9.50895 41.2028 10.0591C41.4486 10.606 41.5715 11.2521 41.5715 11.9976ZM36.1576 11.9976C36.1576 12.5477 36.232 13.0246 36.3808 13.4282C36.5295 13.8286 36.7575 14.1379 37.0648 14.356C37.3752 14.5708 37.773 14.6782 38.2581 14.6782C38.7465 14.6782 39.1443 14.5708 39.4515 14.356C39.7588 14.1379 39.9851 13.8286 40.1307 13.4282C40.2762 13.0246 40.349 12.5477 40.349 11.9976C40.349 11.161 40.1824 10.5067 39.8493 10.0347C39.5194 9.55941 38.9923 9.32178 38.2678 9.32178C37.7827 9.32178 37.3833 9.4292 37.0696 9.64404C36.7592 9.85889 36.5295 10.1665 36.3808 10.5669C36.232 10.964 36.1576 11.4409 36.1576 11.9976Z" fill="#969696"/>
<path d="M47.0187 13.6333C47.0187 14.0565 46.9152 14.4211 46.7083 14.7271C46.5045 15.033 46.2102 15.2674 45.8253 15.4302C45.4437 15.5929 44.9877 15.6743 44.4573 15.6743C44.1986 15.6743 43.9512 15.6597 43.7151 15.6304C43.479 15.6011 43.2559 15.5588 43.0457 15.5034C42.8387 15.4448 42.6495 15.3748 42.4781 15.2935V14.1899C42.7659 14.3169 43.0877 14.4325 43.4435 14.5366C43.7992 14.6375 44.1614 14.688 44.5301 14.688C44.8309 14.688 45.0799 14.6489 45.2772 14.5708C45.4777 14.4894 45.6265 14.3755 45.7235 14.229C45.8205 14.0793 45.869 13.9051 45.869 13.7065C45.869 13.495 45.8124 13.3159 45.6992 13.1694C45.586 13.0229 45.4146 12.8895 45.185 12.769C44.9586 12.6453 44.674 12.5135 44.3312 12.3735C44.0984 12.2791 43.8752 12.1717 43.6618 12.0513C43.4515 11.9308 43.264 11.7892 43.099 11.6265C42.9341 11.4637 42.8031 11.2716 42.7061 11.0503C42.6123 10.8257 42.5654 10.562 42.5654 10.2593C42.5654 9.85563 42.6608 9.51058 42.8516 9.22412C43.0457 8.93766 43.3173 8.71794 43.6666 8.56494C44.0191 8.41195 44.4298 8.33545 44.8988 8.33545C45.2707 8.33545 45.62 8.37451 45.9466 8.45264C46.2765 8.53076 46.5999 8.64144 46.9168 8.78467L46.5482 9.72705C46.2571 9.60661 45.9741 9.51058 45.6992 9.43896C45.4276 9.36735 45.1494 9.33154 44.8648 9.33154C44.619 9.33154 44.4104 9.36898 44.239 9.44385C44.0676 9.51872 43.9367 9.62451 43.8461 9.76123C43.7588 9.89469 43.7151 10.0542 43.7151 10.2397C43.7151 10.4481 43.7652 10.6239 43.8655 10.7671C43.969 10.9071 44.1275 11.0356 44.3409 11.1528C44.5576 11.27 44.8357 11.4002 45.1753 11.5435C45.5666 11.7062 45.8981 11.8771 46.1698 12.0562C46.4447 12.2352 46.6549 12.45 46.8004 12.7007C46.946 12.9481 47.0187 13.259 47.0187 13.6333Z" fill="#969696"/>
<path d="M54.7212 13.6333C54.7212 14.0565 54.6177 14.4211 54.4108 14.7271C54.207 15.033 53.9127 15.2674 53.5279 15.4302C53.1462 15.5929 52.6902 15.6743 52.1598 15.6743C51.9011 15.6743 51.6537 15.6597 51.4176 15.6304C51.1815 15.6011 50.9584 15.5588 50.7482 15.5034C50.5412 15.4448 50.352 15.3748 50.1806 15.2935V14.1899C50.4684 14.3169 50.7902 14.4325 51.146 14.5366C51.5017 14.6375 51.8639 14.688 52.2326 14.688C52.5334 14.688 52.7824 14.6489 52.9797 14.5708C53.1802 14.4894 53.329 14.3755 53.426 14.229C53.523 14.0793 53.5715 13.9051 53.5715 13.7065C53.5715 13.495 53.5149 13.3159 53.4017 13.1694C53.2885 13.0229 53.1171 12.8895 52.8875 12.769C52.6611 12.6453 52.3765 12.5135 52.0337 12.3735C51.8009 12.2791 51.5777 12.1717 51.3643 12.0513C51.154 11.9308 50.9665 11.7892 50.8015 11.6265C50.6366 11.4637 50.5056 11.2716 50.4086 11.0503C50.3148 10.8257 50.2679 10.562 50.2679 10.2593C50.2679 9.85563 50.3633 9.51058 50.5541 9.22412C50.7482 8.93766 51.0198 8.71794 51.3691 8.56494C51.7216 8.41195 52.1324 8.33545 52.6013 8.33545C52.9732 8.33545 53.3225 8.37451 53.6491 8.45264C53.979 8.53076 54.3024 8.64144 54.6194 8.78467L54.2507 9.72705C53.9596 9.60661 53.6766 9.51058 53.4017 9.43896C53.1301 9.36735 52.8519 9.33154 52.5673 9.33154C52.3215 9.33154 52.1129 9.36898 51.9415 9.44385C51.7701 9.51872 51.6392 9.62451 51.5486 9.76123C51.4613 9.89469 51.4176 10.0542 51.4176 10.2397C51.4176 10.4481 51.4678 10.6239 51.568 10.7671C51.6715 10.9071 51.83 11.0356 52.0434 11.1528C52.2601 11.27 52.5382 11.4002 52.8778 11.5435C53.2691 11.7062 53.6006 11.8771 53.8723 12.0562C54.1472 12.2352 54.3574 12.45 54.5029 12.7007C54.6485 12.9481 54.7212 13.259 54.7212 13.6333Z" fill="#969696"/>
<path d="M59.9356 15.5767H55.9189V8.43799H59.9356V9.42432H57.0832V11.3628H59.7562V12.3442H57.0832V14.5854H59.9356V15.5767Z" fill="#969696"/>
<path d="M64.1604 11.6997H66.8091V15.2837C66.4372 15.4074 66.0524 15.5034 65.6546 15.5718C65.2568 15.6401 64.8105 15.6743 64.3157 15.6743C63.5945 15.6743 62.9832 15.5311 62.4819 15.2446C61.9839 14.9549 61.6055 14.5366 61.3468 13.9897C61.0881 13.4396 60.9587 12.7772 60.9587 12.0024C60.9587 11.257 61.1026 10.6108 61.3904 10.064C61.6783 9.51383 62.0971 9.08903 62.6469 8.78955C63.1967 8.48682 63.8629 8.33545 64.6455 8.33545C65.0304 8.33545 65.4023 8.37451 65.7613 8.45264C66.1235 8.52751 66.455 8.63167 66.7558 8.76514L66.3483 9.73193C66.109 9.618 65.8405 9.52197 65.543 9.44385C65.2455 9.36572 64.9366 9.32666 64.6164 9.32666C64.1087 9.32666 63.6705 9.43734 63.3018 9.65869C62.9363 9.88005 62.655 10.1925 62.4577 10.5962C62.2604 10.9966 62.1618 11.4702 62.1618 12.0171C62.1618 12.5477 62.241 13.0132 62.3995 13.4136C62.5579 13.814 62.8054 14.1265 63.1417 14.3511C63.4813 14.5724 63.9195 14.6831 64.4563 14.6831C64.7248 14.6831 64.9528 14.6685 65.1404 14.6392C65.3279 14.6099 65.501 14.5773 65.6594 14.5415V12.7007H64.1604V11.6997Z" fill="#969696"/>
<path d="M73.9058 8.43799V13.0571C73.9058 13.5552 73.8007 14.0011 73.5905 14.395C73.3835 14.7889 73.0698 15.1014 72.6493 15.3325C72.2289 15.5604 71.7001 15.6743 71.063 15.6743C70.1543 15.6743 69.4622 15.4351 68.9868 14.9565C68.5146 14.4748 68.2785 13.8351 68.2785 13.0376V8.43799H69.4428V12.9351C69.4428 13.5308 69.5818 13.9702 69.86 14.2534C70.1381 14.5366 70.5537 14.6782 71.1067 14.6782C71.4883 14.6782 71.7988 14.6115 72.0381 14.478C72.2807 14.3413 72.4585 14.1427 72.5717 13.8823C72.6882 13.6187 72.7464 13.3013 72.7464 12.9302V8.43799H73.9058Z" fill="#969696"/>
<path d="M77.5436 8.43799C78.1548 8.43799 78.6593 8.51286 79.0571 8.6626C79.4582 8.81234 79.7557 9.0402 79.9497 9.34619C80.147 9.65218 80.2457 10.0412 80.2457 10.5132C80.2457 10.8647 80.181 11.1642 80.0516 11.4116C79.9222 11.659 79.7525 11.8641 79.5422 12.0269C79.332 12.1896 79.1073 12.3198 78.8679 12.4175L80.8811 15.5767H79.5665L77.8541 12.7153H76.714V15.5767H75.5498V8.43799H77.5436ZM77.466 9.41455H76.714V11.7485H77.5193C78.0594 11.7485 78.4507 11.6476 78.6933 11.4458C78.9391 11.244 79.062 10.9461 79.062 10.5522C79.062 10.1388 78.931 9.84587 78.669 9.67334C78.4103 9.50081 78.0093 9.41455 77.466 9.41455Z" fill="#969696"/>
<path d="M88.0215 11.9976C88.0215 12.5477 87.9519 13.049 87.8129 13.5015C87.677 13.9507 87.4717 14.3381 87.1968 14.6636C86.9219 14.9858 86.5774 15.2349 86.1635 15.4106C85.7495 15.5864 85.2644 15.6743 84.7081 15.6743C84.1422 15.6743 83.6506 15.5864 83.2334 15.4106C82.8195 15.2349 82.475 14.9842 82.2001 14.6587C81.9285 14.3332 81.7247 13.9442 81.5889 13.4917C81.4531 13.0392 81.3851 12.5379 81.3851 11.9878C81.3851 11.2521 81.5048 10.6108 81.7441 10.064C81.9867 9.51383 82.3537 9.0874 82.8453 8.78467C83.3401 8.47868 83.9643 8.32568 84.7178 8.32568C85.4552 8.32568 86.0681 8.47705 86.5564 8.77979C87.0448 9.08252 87.4102 9.50895 87.6528 10.0591C87.8986 10.606 88.0215 11.2521 88.0215 11.9976ZM82.6076 11.9976C82.6076 12.5477 82.682 13.0246 82.8308 13.4282C82.9795 13.8286 83.2075 14.1379 83.5148 14.356C83.8252 14.5708 84.223 14.6782 84.7081 14.6782C85.1965 14.6782 85.5943 14.5708 85.9015 14.356C86.2088 14.1379 86.4351 13.8286 86.5807 13.4282C86.7262 13.0246 86.799 12.5477 86.799 11.9976C86.799 11.161 86.6324 10.5067 86.2993 10.0347C85.9694 9.55941 85.4423 9.32178 84.7178 9.32178C84.2327 9.32178 83.8333 9.4292 83.5196 9.64404C83.2092 9.85889 82.9795 10.1665 82.8308 10.5669C82.682 10.964 82.6076 11.4409 82.6076 11.9976Z" fill="#969696"/>
<path d="M93.4687 13.6333C93.4687 14.0565 93.3652 14.4211 93.1582 14.7271C92.9545 15.033 92.6602 15.2674 92.2753 15.4302C91.8937 15.5929 91.4377 15.6743 90.9073 15.6743C90.6486 15.6743 90.4012 15.6597 90.1651 15.6304C89.929 15.6011 89.7059 15.5588 89.4957 15.5034C89.2887 15.4448 89.0995 15.3748 88.9281 15.2935V14.1899C89.2159 14.3169 89.5377 14.4325 89.8935 14.5366C90.2492 14.6375 90.6114 14.688 90.9801 14.688C91.2809 14.688 91.5299 14.6489 91.7272 14.5708C91.9277 14.4894 92.0765 14.3755 92.1735 14.229C92.2705 14.0793 92.319 13.9051 92.319 13.7065C92.319 13.495 92.2624 13.3159 92.1492 13.1694C92.036 13.0229 91.8646 12.8895 91.635 12.769C91.4086 12.6453 91.124 12.5135 90.7812 12.3735C90.5484 12.2791 90.3252 12.1717 90.1118 12.0513C89.9015 11.9308 89.714 11.7892 89.549 11.6265C89.3841 11.4637 89.2531 11.2716 89.1561 11.0503C89.0623 10.8257 89.0154 10.562 89.0154 10.2593C89.0154 9.85563 89.1108 9.51058 89.3016 9.22412C89.4957 8.93766 89.7673 8.71794 90.1166 8.56494C90.4691 8.41195 90.8798 8.33545 91.3488 8.33545C91.7207 8.33545 92.07 8.37451 92.3966 8.45264C92.7265 8.53076 93.0499 8.64144 93.3668 8.78467L92.9982 9.72705C92.7071 9.60661 92.4241 9.51058 92.1492 9.43896C91.8776 9.36735 91.5994 9.33154 91.3148 9.33154C91.069 9.33154 90.8604 9.36898 90.689 9.44385C90.5176 9.51872 90.3867 9.62451 90.2961 9.76123C90.2088 9.89469 90.1651 10.0542 90.1651 10.2397C90.1651 10.4481 90.2152 10.6239 90.3155 10.7671C90.419 10.9071 90.5775 11.0356 90.7909 11.1528C91.0076 11.27 91.2857 11.4002 91.6253 11.5435C92.0166 11.7062 92.3481 11.8771 92.6198 12.0562C92.8947 12.2352 93.1049 12.45 93.2504 12.7007C93.396 12.9481 93.4687 13.259 93.4687 13.6333Z" fill="#969696"/>
<path d="M99.1386 8.43799C100.054 8.43799 100.722 8.62679 101.142 9.00439C101.563 9.382 101.773 9.91097 101.773 10.5913C101.773 10.9006 101.724 11.1951 101.627 11.4751C101.533 11.7518 101.378 11.9976 101.162 12.2124C100.945 12.424 100.659 12.5916 100.303 12.7153C99.9504 12.839 99.5154 12.9009 98.9979 12.9009H98.2412V15.5767H97.0769V8.43799H99.1386ZM99.061 9.40967H98.2412V11.9243H98.8766C99.2421 11.9243 99.5526 11.882 99.8081 11.7974C100.064 11.7095 100.258 11.5711 100.39 11.3823C100.523 11.1935 100.589 10.9445 100.589 10.6353C100.589 10.2218 100.465 9.91423 100.216 9.7124C99.9698 9.51058 99.5849 9.40967 99.061 9.40967Z" fill="#969696"/>
<path d="M109.316 11.9976C109.316 12.5477 109.246 13.049 109.107 13.5015C108.971 13.9507 108.766 14.3381 108.491 14.6636C108.216 14.9858 107.872 15.2349 107.458 15.4106C107.044 15.5864 106.559 15.6743 106.002 15.6743C105.436 15.6743 104.945 15.5864 104.528 15.4106C104.114 15.2349 103.769 14.9842 103.494 14.6587C103.223 14.3332 103.019 13.9442 102.883 13.4917C102.747 13.0392 102.679 12.5379 102.679 11.9878C102.679 11.2521 102.799 10.6108 103.038 10.064C103.281 9.51383 103.648 9.0874 104.14 8.78467C104.634 8.47868 105.259 8.32568 106.012 8.32568C106.749 8.32568 107.362 8.47705 107.851 8.77979C108.339 9.08252 108.704 9.50895 108.947 10.0591C109.193 10.606 109.316 11.2521 109.316 11.9976ZM103.902 11.9976C103.902 12.5477 103.976 13.0246 104.125 13.4282C104.274 13.8286 104.502 14.1379 104.809 14.356C105.12 14.5708 105.517 14.6782 106.002 14.6782C106.491 14.6782 106.889 14.5708 107.196 14.356C107.503 14.1379 107.729 13.8286 107.875 13.4282C108.02 13.0246 108.093 12.5477 108.093 11.9976C108.093 11.161 107.927 10.5067 107.594 10.0347C107.264 9.55941 106.737 9.32178 106.012 9.32178C105.527 9.32178 105.128 9.4292 104.814 9.64404C104.503 9.85889 104.274 10.1665 104.125 10.5669C103.976 10.964 103.902 11.4409 103.902 11.9976Z" fill="#969696"/>
<path d="M112.662 8.43799C113.274 8.43799 113.778 8.51286 114.176 8.6626C114.577 8.81234 114.875 9.0402 115.069 9.34619C115.266 9.65218 115.365 10.0412 115.365 10.5132C115.365 10.8647 115.3 11.1642 115.17 11.4116C115.041 11.659 114.871 11.8641 114.661 12.0269C114.451 12.1896 114.226 12.3198 113.987 12.4175L116 15.5767H114.685L112.973 12.7153H111.833V15.5767H110.669V8.43799H112.662ZM112.585 9.41455H111.833V11.7485H112.638C113.178 11.7485 113.57 11.6476 113.812 11.4458C114.058 11.244 114.181 10.9461 114.181 10.5522C114.181 10.1388 114.05 9.84587 113.788 9.67334C113.529 9.50081 113.128 9.41455 112.585 9.41455Z" fill="#969696"/>
<path d="M161.374 4.14209L157.896 17.3629C156.825 17.5441 155.632 17.584 154.317 17.3629L151.891 8.48906L149.424 17.3629C148.333 17.5644 147.18 17.584 145.886 17.3629L142.388 4.14209C143.521 3.9007 144.613 3.92098 145.663 4.14209L147.928 13.4588L150.111 4.14209C151.203 3.92098 152.497 3.9007 153.629 4.14209L156.258 13.4994L158.097 4.14209C159.23 3.9007 160.341 3.92098 161.372 4.14209H161.374Z" fill="#2C2A29"/>
<path d="M161.165 12.2917C161.165 9.07187 163.348 7.05964 166.441 7.05964C169.535 7.05964 171.718 9.15234 171.718 12.2917C171.718 15.4311 169.636 17.544 166.441 17.544C163.247 17.544 161.165 15.4716 161.165 12.2917ZM168.666 12.2917C168.666 10.6419 167.857 9.67567 166.441 9.67567C165.026 9.67567 164.217 10.6419 164.217 12.2917C164.217 13.9415 165.046 14.928 166.441 14.928C167.837 14.928 168.666 14.0226 168.666 12.2917Z" fill="#2C2A29"/>
<path d="M188.518 10.1788V17.3427H185.506V11.2458C185.506 10.1795 184.818 9.63588 183.606 9.63588C183.04 9.63588 182.493 9.7569 182.048 9.93745C182.21 10.3803 182.291 10.8631 182.291 11.3864V17.3427H179.279V11.2458C179.279 10.1795 178.591 9.63588 177.378 9.63588C176.914 9.63588 176.469 9.69606 176.084 9.7968V17.3427H173.031L173.052 8.38837C174.265 7.54318 176.165 7.08068 177.762 7.08068C179.036 7.08068 180.128 7.50328 180.917 8.18754C181.948 7.52356 183.383 7.08068 184.596 7.08068C186.8 7.08068 188.518 8.24773 188.518 10.1795V10.1788Z" fill="#2C2A29"/>
<path d="M200.573 12.6339C200.573 15.3703 199.278 17.5441 196.225 17.5441C195.295 17.5441 194.284 17.2426 193.435 16.6584V20.3813C192.748 20.9242 191.191 21.3671 190.382 21.3671V7.86502C191.373 7.40252 192.99 7.08001 194.668 7.08001C198.328 7.08001 200.572 9.07196 200.572 12.6339H200.573ZM197.539 12.2715C197.539 10.7826 196.731 9.49456 194.85 9.49456C194.426 9.49456 193.941 9.53512 193.435 9.61558V14.8679C193.839 14.9484 194.325 15.0086 194.931 15.0086C196.549 15.0086 197.539 14.2641 197.539 12.2722V12.2715Z" fill="#2C2A29"/>
<path d="M201.866 4.18201C201.866 3.33682 202.574 2.63293 203.423 2.63293C204.272 2.63293 205 3.3172 205 4.18201C205 5.04683 204.292 5.73174 203.423 5.73174C202.554 5.73174 201.866 5.04748 201.866 4.18201ZM201.907 7.36194C202.331 7.18074 202.857 7.07999 203.444 7.07999C204.03 7.07999 204.535 7.18074 204.96 7.36194V17.3426H201.907V7.36194Z" fill="#2C2A29"/>
<path d="M138.671 4.3102V7.98337C138.671 8.20383 138.564 8.4112 138.383 8.53876L134.859 11.0227C134.859 11.0227 134.856 11.0246 134.855 11.0259C134.692 11.143 134.589 11.3249 134.573 11.5224C134.571 11.5414 134.571 11.5604 134.571 11.5794V17.2366C134.571 17.4244 134.417 17.5768 134.229 17.5768H133.969C133.848 17.5768 133.735 17.512 133.674 17.408L130.069 11.2562C130.069 11.2562 130.068 11.2536 130.066 11.2529C129.987 11.1234 129.786 11.179 129.786 11.3321V17.2366C129.786 17.4244 129.632 17.5768 129.444 17.5768H129.184C129.063 17.5768 128.95 17.512 128.889 17.408L125.138 11.0083C125.047 10.8545 125 10.6792 125 10.5006V4.3102C125 4.1218 125.153 3.97003 125.342 3.97003H125.601C125.722 3.97003 125.835 4.03414 125.897 4.13815L129.502 10.29C129.58 10.4234 129.785 10.3685 129.785 10.2141V4.3102C129.785 4.1218 129.938 3.97003 130.127 3.97003H130.386C130.507 3.97003 130.62 4.03414 130.682 4.13815L134.287 10.29C134.365 10.4234 134.57 10.3685 134.57 10.2141V6.98576C134.57 6.65868 134.729 6.35187 134.997 6.16281L138.019 4.03218C138.077 3.99162 138.146 3.97003 138.217 3.97003H138.33C138.518 3.97003 138.671 4.1218 138.671 4.3102Z" fill="#2C2A29"/>
</svg>
