<svg xmlns="http://www.w3.org/2000/svg" width="542.982" height="210" viewBox="0 0 542.982 210"><g transform="translate(-142 -435)"><g transform="translate(21.251 -187.335)"><path d="M130.694,804.726h2.653a15.927,15.927,0,0,1,3.125.218,3.43,3.43,0,0,1,1.863,1.153,3.392,3.392,0,0,1,.734,2.213,3.544,3.544,0,0,1-.7,2.216,3.492,3.492,0,0,1-1.978,1.166,16.044,16.044,0,0,1-3.393.227h-.961v6.219h-1.344Zm1.344,1.328v4.541l2.244.037a5.969,5.969,0,0,0,2.026-.246,2.056,2.056,0,0,0,1.011-.815,2.419,2.419,0,0,0,0-2.5,2.056,2.056,0,0,0-.965-.777,5.554,5.554,0,0,0-1.968-.24Z" fill="#fff"/><path d="M132.214,818.319h-1.7V804.561h2.836a14.219,14.219,0,0,1,3.173.217,3.649,3.649,0,0,1,1.967,1.2,3.709,3.709,0,0,1,.758,2.331,3.478,3.478,0,0,1-.752,2.322,3.588,3.588,0,0,1-2.057,1.219,15.847,15.847,0,0,1-3.437.255h-.785Zm-1.344-.359h.982v-6.246H133a16.642,16.642,0,0,0,3.355-.211,3.38,3.38,0,0,0,1.872-1.094,3.221,3.221,0,0,0,.644-2.1,3.026,3.026,0,0,0-.676-2.09,3.16,3.16,0,0,0-1.765-1.114,15.754,15.754,0,0,0-3.082-.183H130.87Zm3.412-7.158-2.43-.026v-4.9h2.534a5.964,5.964,0,0,1,2.043.24,2.127,2.127,0,0,1,1.025.873,2.33,2.33,0,0,1,.4,1.319,2.434,2.434,0,0,1-.4,1.363,2.229,2.229,0,0,1-1.072.879A6.147,6.147,0,0,1,134.282,810.8Zm-2.068-.377,2.084.017a6.276,6.276,0,0,0,1.963-.232,1.922,1.922,0,0,0,.912-.742,2.2,2.2,0,0,0,0-2.291,1.86,1.86,0,0,0-.9-.725,5.826,5.826,0,0,0-1.89-.226h-2.172Z" fill="#fff"/><path d="M174.208,804.726l6.254,13.412H179l-2.1-4.412H171.13l-2.076,4.412h-1.5l6.326-13.412Zm-.16,2.865-2.295,4.849h4.586Z" fill="#fff"/><path d="M180.743,818.319H178.9l-2.109-4.408h-5.533l-2.11,4.408h-1.888l6.509-13.758h.557Zm-1.611-.359h1.052l-6.1-13.037h-.082l-6.178,13.037h1.109l2.088-4.4h6Zm-2.514-5.328h-5.154l2.584-5.455Zm-4.582-.367h4.029l-2.017-4.258Z" fill="#fff"/><path d="M210.991,804.726h2.666a15.249,15.249,0,0,1,3.041.2,3.341,3.341,0,0,1,2.688,3.387,3.752,3.752,0,0,1-.522,1.927,3.333,3.333,0,0,1-1.484,1.256,6.544,6.544,0,0,1-2.641.426l4.817,6.219h-1.649l-4.834-6.219h-.732v6.219h-1.35Zm1.35,1.328v4.552l2.31.026a5.25,5.25,0,0,0,1.977-.272,2.031,2.031,0,0,0,1.012-.808,2.379,2.379,0,0,0,0-2.481,2.023,2.023,0,0,0-.991-.777,5.392,5.392,0,0,0-1.951-.24Z" fill="#fff"/><path d="M219.936,818.319h-2.093l-4.832-6.213h-.481v6.213h-1.717V804.561h2.844a17.029,17.029,0,0,1,3.072.18,3.648,3.648,0,0,1,2.038,1.238,3.551,3.551,0,0,1,.789,2.331,3.783,3.783,0,0,1-.538,2.011,3.242,3.242,0,0,1-1.55,1.323,6.633,6.633,0,0,1-2.358.462Zm-1.941-.359h1.2l-4.818-6.207.363-.025a6.744,6.744,0,0,0,2.588-.4,3.307,3.307,0,0,0,1.381-1.187,3.374,3.374,0,0,0,.486-1.83,3.273,3.273,0,0,0-.7-2.09,3.379,3.379,0,0,0-1.848-1.121,15.771,15.771,0,0,0-2.992-.176h-2.488V817.96h.986v-6.232h1.029Zm-3.344-7.158-2.5-.026v-4.9H214.7a5.926,5.926,0,0,1,2.031.24,2.066,2.066,0,0,1,1.045.873,2.368,2.368,0,0,1,.4,1.315,2.611,2.611,0,0,1-.4,1.361,2.553,2.553,0,0,1-1.058.885A6.155,6.155,0,0,1,214.651,810.8Zm-2.121-.377,2.121.017a6.05,6.05,0,0,0,1.92-.232,1.835,1.835,0,0,0,.906-.742,2.064,2.064,0,0,0,.329-1.162,1.948,1.948,0,0,0-.329-1.129,1.856,1.856,0,0,0-.878-.725,5.849,5.849,0,0,0-1.9-.226H212.53Z" fill="#fff"/><path d="M256.087,804.726l6.273,13.412h-1.451l-2.105-4.412h-5.78l-2.084,4.412h-1.5l6.328-13.412Zm-.158,2.865-2.284,4.849h4.573Z" fill="#fff"/><path d="M262.612,818.319h-1.828l-2.117-4.408h-5.516l-2.123,4.408h-1.855l6.494-13.758h.555Zm-1.592-.359h1.055l-6.092-13.037h-.1L249.7,817.96h1.119l2.08-4.4h6.018Zm-2.507-5.328h-5.168l2.584-5.455Zm-4.59-.367h4.008l-2-4.258Z" fill="#fff"/><path d="M338.839,807.239l-1.065.791a5.561,5.561,0,0,0-2.1-1.72,6.147,6.147,0,0,0-2.69-.6,5.835,5.835,0,0,0-2.969.785,5.281,5.281,0,0,0-2.127,2.072,5.632,5.632,0,0,0-.761,2.928,5.534,5.534,0,0,0,1.668,4.08,6.234,6.234,0,0,0,8.974-.57l1.065.808a6.777,6.777,0,0,1-2.506,1.971,7.957,7.957,0,0,1-3.344.715,6.907,6.907,0,0,1-7.269-7.137,6.635,6.635,0,0,1,2.064-4.945,7.121,7.121,0,0,1,5.164-2.016,7.555,7.555,0,0,1,3.4.756A6.581,6.581,0,0,1,338.839,807.239Z" fill="#fff"/><path d="M332.989,818.661a7.182,7.182,0,0,1-5.711-2.408,7.3,7.3,0,0,1-1.726-4.893,6.824,6.824,0,0,1,2.125-5.088,7.325,7.325,0,0,1,5.271-2.044,8.024,8.024,0,0,1,3.5.746,7.059,7.059,0,0,1,2.528,2.144l.1.149-1.332,1.017-.119-.131a5.341,5.341,0,0,0-2.029-1.679,6.116,6.116,0,0,0-5.51.172,5.531,5.531,0,0,0-2.027,2.005,5.371,5.371,0,0,0-.752,2.842,5.3,5.3,0,0,0,1.652,3.949,5.656,5.656,0,0,0,4.115,1.58,5.792,5.792,0,0,0,4.573-2.123l.1-.134,1.358,1.025-.121.129a6.942,6.942,0,0,1-2.571,2.031A8.048,8.048,0,0,1,332.989,818.661Zm-.041-14.08a7.01,7.01,0,0,0-5.043,1.957,6.567,6.567,0,0,0-2.019,4.822,6.959,6.959,0,0,0,1.687,4.666,6.791,6.791,0,0,0,5.416,2.28,7.789,7.789,0,0,0,3.281-.69,6.39,6.39,0,0,0,2.307-1.781l-.783-.594a6.392,6.392,0,0,1-9.106.467,5.665,5.665,0,0,1-1.712-4.215,5.8,5.8,0,0,1,.775-3.015,5.663,5.663,0,0,1,2.172-2.149,6.2,6.2,0,0,1,3.066-.783,6.4,6.4,0,0,1,2.783.6,6.071,6.071,0,0,1,2.049,1.639l.756-.592a6.411,6.411,0,0,0-2.287-1.9A7.917,7.917,0,0,0,332.948,804.581Z" fill="#fff"/><path d="M376.294,804.4a6.95,6.95,0,0,1,5.094,2.047A7.06,7.06,0,0,1,376.4,818.5a6.917,6.917,0,0,1-5.051-2.068,6.679,6.679,0,0,1-2.046-4.926,7.117,7.117,0,0,1,.925-3.574,6.889,6.889,0,0,1,6.061-3.53Zm.047,1.307a5.552,5.552,0,0,0-2.811.768,5.615,5.615,0,0,0-2.1,2.091,5.833,5.833,0,0,0-.743,2.938,5.394,5.394,0,0,0,1.659,4.023,5.462,5.462,0,0,0,4,1.66,5.738,5.738,0,0,0,2.888-.769,5.058,5.058,0,0,0,2.045-2.066,5.506,5.506,0,0,0,.776-2.907,5.757,5.757,0,0,0-2.846-4.97A5.74,5.74,0,0,0,376.341,805.706Z" fill="#fff"/><path d="M376.4,818.661a7.051,7.051,0,0,1-5.17-2.1,6.864,6.864,0,0,1-2.1-5.058,7.3,7.3,0,0,1,.943-3.682,7.06,7.06,0,0,1,2.623-2.636,6.854,6.854,0,0,1,3.594-.957,7.135,7.135,0,0,1,5.211,2.082,7.226,7.226,0,0,1-5.1,12.351Zm-.111-14.08a6.766,6.766,0,0,0-5.91,3.426,7.107,7.107,0,0,0-.916,3.5,6.567,6.567,0,0,0,2.011,4.811,6.96,6.96,0,0,0,9.776-.026,6.937,6.937,0,0,0-.012-9.73A6.719,6.719,0,0,0,376.294,804.581Zm.047,12.789a5.795,5.795,0,0,1-5.83-5.867,5.955,5.955,0,0,1,.773-3.025,5.738,5.738,0,0,1,2.135-2.159,5.827,5.827,0,0,1,2.922-.787,5.9,5.9,0,0,1,2.955.787,5.776,5.776,0,0,1,2.15,2.147,5.7,5.7,0,0,1,.774,2.978,5.835,5.835,0,0,1-.774,2.991,5.435,5.435,0,0,1-2.138,2.138A5.833,5.833,0,0,1,376.341,817.37Zm0-11.476a5.231,5.231,0,0,0-2.742.75,5.85,5.85,0,0,0-2.034,2.007,6.049,6.049,0,0,0-.687,2.852,5.286,5.286,0,0,0,1.572,3.9,5.348,5.348,0,0,0,3.891,1.6,5.449,5.449,0,0,0,2.795-.736,5.149,5.149,0,0,0,2.007-2,5.7,5.7,0,0,0,.723-2.825,5.418,5.418,0,0,0-.723-2.8,5.641,5.641,0,0,0-4.8-2.75Z" fill="#fff"/><path d="M413.886,818.138l1.9-13.412h.252l5.422,11.017,5.422-11.017h.213l1.922,13.412H427.7l-1.324-9.584-4.74,9.584h-.346l-4.807-9.66-1.3,9.66Z" fill="#fff"/><path d="M429.224,818.319h-1.686l-1.266-9.166-4.527,9.166h-.568l-4.586-9.244-1.26,9.244h-1.65l1.955-13.758h.509l5.313,10.776,5.3-10.776h.486Zm-1.368-.359h.938L426.936,805l-5.478,11.147-5.52-11.155-1.853,12.969h.932l1.4-10.078,4.982,10.078h.116l4.963-10Z" fill="#fff"/><path d="M460.011,804.726h2.658a15.61,15.61,0,0,1,3.1.218,3.449,3.449,0,0,1-.052,6.748,16.3,16.3,0,0,1-3.414.227h-.961v6.219h-1.336Zm1.336,1.328v4.541l2.269.037a6.011,6.011,0,0,0,2.024-.246,2.022,2.022,0,0,0,.976-.815,2.2,2.2,0,0,0,0-2.5,1.887,1.887,0,0,0-.947-.777,5.387,5.387,0,0,0-1.949-.24Z" fill="#fff"/><path d="M461.522,818.319h-1.7V804.561h2.844a14.359,14.359,0,0,1,3.176.217,3.468,3.468,0,0,1,2.732,3.532,3.517,3.517,0,0,1-.775,2.322,3.562,3.562,0,0,1-2.047,1.219,15.723,15.723,0,0,1-3.447.255h-.786Zm-1.336-.359h.987v-6.246h1.135a16.66,16.66,0,0,0,3.361-.211,3.283,3.283,0,0,0,1.865-1.094,3.241,3.241,0,0,0,.682-2.1,3.118,3.118,0,0,0-.7-2.09,3.249,3.249,0,0,0-1.763-1.114,15.893,15.893,0,0,0-3.086-.183h-2.483Zm3.43-7.158-2.443-.026v-4.9h2.547a5.957,5.957,0,0,1,2.035.24,2.168,2.168,0,0,1,1.021.873,2.483,2.483,0,0,1,.4,1.319,2.59,2.59,0,0,1-.4,1.363,2.388,2.388,0,0,1-1.054.879A6.255,6.255,0,0,1,463.616,810.8Zm-2.094-.377,2.094.017a6.132,6.132,0,0,0,1.955-.232,1.763,1.763,0,0,0,.914-.742,1.984,1.984,0,0,0,0-2.291,1.764,1.764,0,0,0-.884-.725,5.8,5.8,0,0,0-1.881-.226h-2.2Z" fill="#fff"/><path d="M503.528,804.726l6.264,13.412h-1.441l-2.112-4.412h-5.781l-2.094,4.412h-1.49l6.328-13.412Zm-.148,2.865-2.3,4.849h4.57Z" fill="#fff"/><path d="M510.058,818.319h-1.842l-2.117-4.408h-5.536l-2.1,4.408H496.6l6.5-13.758h.562Zm-1.608-.359h1.061l-6.1-13.037h-.082l-6.186,13.037h1.12l2.08-4.4h6.009Zm-2.533-5.328h-5.145l2.608-5.455Zm-4.565-.367h3.995l-1.967-4.258Z" fill="#fff"/><path d="M540.317,804.726h2.672a14.833,14.833,0,0,1,3,.2,3.313,3.313,0,0,1,2.7,3.387,3.773,3.773,0,0,1-.492,1.927,3.386,3.386,0,0,1-1.469,1.256,6.853,6.853,0,0,1-2.67.426l4.829,6.219h-1.663l-4.822-6.219h-.783v6.219h-1.307Zm1.307,1.328v4.552l2.316.026a5.234,5.234,0,0,0,2.008-.272,1.919,1.919,0,0,0,1.012-.808,2.3,2.3,0,0,0,0-2.481,1.937,1.937,0,0,0-.973-.777,5.483,5.483,0,0,0-1.97-.24Z" fill="#fff"/><path d="M549.259,818.319h-2.116l-4.816-6.213h-.484v6.213h-1.694V804.561h2.84a17.2,17.2,0,0,1,3.055.18,3.7,3.7,0,0,1,2.053,1.238,3.641,3.641,0,0,1,.775,2.331,3.722,3.722,0,0,1-.539,2.011,3.2,3.2,0,0,1-1.551,1.323,6.592,6.592,0,0,1-2.348.462Zm-1.936-.359h1.205l-4.842-6.207.377-.025a6.617,6.617,0,0,0,2.571-.4,3.247,3.247,0,0,0,1.412-1.187,3.517,3.517,0,0,0,.482-1.83,3.142,3.142,0,0,0-.715-2.09,3.3,3.3,0,0,0-1.849-1.121,15.465,15.465,0,0,0-2.975-.176h-2.51V817.96h1v-6.232h1.014ZM543.94,810.8l-2.461-.026v-4.9h2.538a5.935,5.935,0,0,1,2.042.24,2.121,2.121,0,0,1,1.04.873,2.229,2.229,0,0,1,.38,1.315,2.449,2.449,0,0,1-.38,1.361,2.318,2.318,0,0,1-1.108.885A5.772,5.772,0,0,1,543.94,810.8Zm-2.1-.377,2.131.017a5.92,5.92,0,0,0,1.916-.232,1.936,1.936,0,0,0,.912-.742,2.094,2.094,0,0,0,.316-1.162,1.975,1.975,0,0,0-.316-1.129,1.907,1.907,0,0,0-.885-.725,5.744,5.744,0,0,0-1.9-.226h-2.174Z" fill="#fff"/><path d="M578.727,806.054v-1.328h7.34v1.328h-2.992v12.084h-1.363V806.054Z" fill="#fff"/><path d="M583.247,818.319h-1.719V806.226H578.54v-1.665h7.713v1.665h-3.006Zm-1.359-.359h.992V805.878H585.9v-.955h-6.986v.955h2.973Z" fill="#fff"/><path d="M616.184,804.726H617.5v13.412h-1.317Z" fill="#fff"/><path d="M617.708,818.319h-1.721V804.561h1.721Zm-1.361-.359h1.005V804.923h-1.005Z" fill="#fff"/><path d="M649.048,804.726H651.7a15.022,15.022,0,0,1,3.024.2,3.464,3.464,0,0,1,1.957,1.174,3.3,3.3,0,0,1,.75,2.213,3.589,3.589,0,0,1-.526,1.927,3.264,3.264,0,0,1-1.478,1.256,6.536,6.536,0,0,1-2.643.426l4.813,6.219H655.94l-4.812-6.219h-.754v6.219h-1.326Zm1.326,1.328v4.552l2.3.026a5.183,5.183,0,0,0,2-.272,2.055,2.055,0,0,0,1.013-.808,2.317,2.317,0,0,0,0-2.481,2.088,2.088,0,0,0-.974-.777,5.487,5.487,0,0,0-1.965-.24Z" fill="#fff"/><path d="M657.972,818.319h-2.106l-4.8-6.213h-.494v6.213h-1.715V804.561H651.7a17.556,17.556,0,0,1,3.088.18,3.741,3.741,0,0,1,2.035,1.238,3.583,3.583,0,0,1,.764,2.331,3.718,3.718,0,0,1-.516,2.011,3.374,3.374,0,0,1-1.582,1.323,6.559,6.559,0,0,1-2.344.462Zm-1.926-.359h1.209l-4.828-6.207.359-.025a6.9,6.9,0,0,0,2.6-.4,3.452,3.452,0,0,0,1.385-1.187,3.618,3.618,0,0,0,.488-1.83,3.126,3.126,0,0,0-.721-2.09,3.353,3.353,0,0,0-1.842-1.121,15.648,15.648,0,0,0-2.99-.176h-2.5V817.96h1.02v-6.232h1Zm-3.371-7.158-2.457-.026v-4.9h2.529a6.048,6.048,0,0,1,2.043.24,2.211,2.211,0,0,1,1.025.873,2.332,2.332,0,0,1,.389,1.315,2.569,2.569,0,0,1-.389,1.361,2.315,2.315,0,0,1-1.089.885A5.783,5.783,0,0,1,652.675,810.8Zm-2.106-.377,2.129.017a5.8,5.8,0,0,0,1.9-.232,1.889,1.889,0,0,0,.935-.742,2.275,2.275,0,0,0,.33-1.162,2.082,2.082,0,0,0-.338-1.129,1.863,1.863,0,0,0-.879-.725,5.809,5.809,0,0,0-1.9-.226h-2.178Z" fill="#fff"/><path d="M158.991,781.427h-17.6a.97.97,0,0,1-.961-.981V693.519a1,1,0,0,0-.977-.972h-7.969a.986.986,0,0,0-.97.972V789.64a.974.974,0,0,0,.97.964h27.51a.971.971,0,0,0,.971-.964V782.4A.982.982,0,0,0,158.991,781.427Z" fill="#fff"/><path d="M212.374,754.291h-3.916V715.477a51.148,51.148,0,0,0-.707-9.85,17.754,17.754,0,0,0-2.943-6.474c-3.739-5.221-9.071-7.814-16.045-7.814a21.341,21.341,0,0,0-7.161,1.208,20.641,20.641,0,0,0-5.986,3.6A18.339,18.339,0,0,0,171.4,701.6,14.132,14.132,0,0,0,170,705.267a23.578,23.578,0,0,0-.545,4.387c-.141,1.734-.219,3.877-.219,6.458v38.179h-3.908a.981.981,0,0,0-.982.977V762.5a.972.972,0,0,0,.982.979h3.908V789.64a.986.986,0,0,0,.967.964H178.1a.973.973,0,0,0,.982-.964V763.478h19.617V789.64a.967.967,0,0,0,.981.964h7.8a.957.957,0,0,0,.982-.964V763.478h3.916a.95.95,0,0,0,.951-.979v-7.231A.959.959,0,0,0,212.374,754.291Zm-13.68,0H179.077V711.449a11.252,11.252,0,0,1,2.805-7.982,9.668,9.668,0,0,1,7.392-3.018,8.7,8.7,0,0,1,6.912,2.971,11.932,11.932,0,0,1,2.508,7.968v42.9Z" fill="#fff"/><path d="M657.005,754.291h-3.92V715.477a49.138,49.138,0,0,0-.709-9.85,17.693,17.693,0,0,0-2.945-6.474q-5.6-7.832-16.024-7.814a21.537,21.537,0,0,0-7.2,1.208,20.421,20.421,0,0,0-5.945,3.6,18.05,18.05,0,0,0-4.237,5.456,12.741,12.741,0,0,0-1.367,3.663,19.786,19.786,0,0,0-.578,4.387c-.149,1.734-.2,3.877-.2,6.458v38.179h-3.934a.993.993,0,0,0-.972.977V762.5a.983.983,0,0,0,.972.979h3.934V789.64a.955.955,0,0,0,.953.964h7.908a.978.978,0,0,0,.971-.964V763.478h19.611V789.64a.971.971,0,0,0,.994.964h7.793a.978.978,0,0,0,.975-.964V763.478h3.92a.968.968,0,0,0,.967-.979v-7.231A.978.978,0,0,0,657.005,754.291Zm-13.682,0H623.712V711.449a11.174,11.174,0,0,1,2.816-7.982,9.558,9.558,0,0,1,7.367-3.018,8.669,8.669,0,0,1,6.911,2.971,11.82,11.82,0,0,1,2.517,7.968v42.9Z" fill="#fff"/><path d="M371.251,698.075a50.134,50.134,0,0,0-50.2,0,49.95,49.95,0,0,0-18.4,18.407,48.7,48.7,0,0,0-6.758,25.059,50.043,50.043,0,0,0,3.811,19.187,49.529,49.529,0,0,0,10.988,16.306,49.748,49.748,0,0,0,35.49,14.809,48.863,48.863,0,0,0,25.067-6.76A50.029,50.029,0,0,0,389.669,766.7a50.149,50.149,0,0,0,0-50.216A50.14,50.14,0,0,0,371.251,698.075Zm9.916,63.74a40.036,40.036,0,0,1-14.715,14.8,40.356,40.356,0,0,1-40.533,0,40.255,40.255,0,0,1-14.719-14.8,40.351,40.351,0,0,1,0-40.541,41.947,41.947,0,0,1,14.719-14.793,40.822,40.822,0,0,1,40.533,0,41.667,41.667,0,0,1,14.715,14.793,40.116,40.116,0,0,1,0,40.541Z" fill="#fff"/><path d="M460.429,692.547h-7.821a2.309,2.309,0,0,0-1.58.772l-15.336,19.292a.764.764,0,0,1-1.246,0l-15.3-19.292a2.253,2.253,0,0,0-1.571-.772h-7.922a.993.993,0,0,0-.959.972V789.64a.981.981,0,0,0,.959.964h7.922a.964.964,0,0,0,.959-.964V708.83c0-.54.274-.636.6-.206l15.342,19.937a.7.7,0,0,0,1.181,0l15.379-19.937c.373-.43.621-.334.621.206v80.81a.956.956,0,0,0,.959.964h7.821a.963.963,0,0,0,.966-.964V693.519A.974.974,0,0,0,460.429,692.547Z" fill="#fff"/><path d="M484.931,692.547h-7.87a.976.976,0,0,0-.982.972V789.64a.965.965,0,0,0,.982.964h7.87a.972.972,0,0,0,.986-.964V693.519A.983.983,0,0,0,484.931,692.547Z" fill="#fff"/><path d="M532.944,692.547H495.659a.979.979,0,0,0-.959.972v7.26a.971.971,0,0,0,.959.971h12.768a.984.984,0,0,1,.982.978V789.64a.981.981,0,0,0,.965.964h7.9a.962.962,0,0,0,.977-.964V702.728a.988.988,0,0,1,.973-.978h12.72a.986.986,0,0,0,.992-.971v-7.26A.994.994,0,0,0,532.944,692.547Z" fill="#fff"/><path d="M551.614,692.547h-7.9a.969.969,0,0,0-.969.972V789.64a.958.958,0,0,0,.969.964h7.9a.976.976,0,0,0,.981-.964V693.519A.987.987,0,0,0,551.614,692.547Z" fill="#fff"/><path d="M604.065,692.547h-7.459a1.219,1.219,0,0,0-1.144.972l-11.973,74.3c-.086.537-.219.537-.3,0l-12.044-74.3a1.19,1.19,0,0,0-1.131-.972h-8.1a.806.806,0,0,0-.807.972l16.467,96.132a1.207,1.207,0,0,0,1.145.953h8.447a1.189,1.189,0,0,0,1.156-.953l16.543-96.132A.8.8,0,0,0,604.065,692.547Z" fill="#fff"/><path d="M296.895,701.039v-8.215a.717.717,0,0,0-.949-.727,65.858,65.858,0,0,0-8.8,2.975,51.146,51.146,0,0,0-15.89,10.7,49.949,49.949,0,0,0-10.848,16.288,50.715,50.715,0,0,0,26.738,66.022,46.337,46.337,0,0,0,6.319,2.279h0c1.445.436,2.476.7,2.476.7a.725.725,0,0,0,.949-.742v-8.182a1.552,1.552,0,0,0-.9-1.31,61.337,61.337,0,0,1-8.842-3.793,41.9,41.9,0,0,1-15.1-14.8,40.432,40.432,0,0,1,6.414-49.591,41.524,41.524,0,0,1,8.681-6.519c1.467-.755,2.414-1.208,2.793-1.353,1.676-.729,5.457-2.143,5.875-2.32h0a.648.648,0,0,0,.149-.055A1.61,1.61,0,0,0,296.895,701.039Z" fill="#fff"/><line x1="538.982" transform="translate(124.749 832.335)" fill="#fff"/></g><text transform="translate(142 479)" fill="#fff" font-size="41" font-family="SegoeUI, Segoe UI"><tspan x="0" y="0">Restaurante</tspan></text></g></svg>