<svg width="307" height="49" viewBox="0 0 307 49" fill="none" xmlns="http://www.w3.org/2000/svg">
<path d="M76.9351 22.7774V33.5685C74.0861 36.7208 69.4744 38.4473 63.9767 38.4473C54.9438 38.4473 48.8099 32.3342 48.8099 21.7889C48.8099 11.2436 54.8985 5.33099 63.9767 5.33099C69.329 5.33099 73.55 7.30338 76.1989 10.6059C75.8536 11.8859 74.6268 12.6739 73.4501 12.97C71.5826 10.2597 68.443 8.6836 63.9767 8.6836C57.0067 8.6836 52.7357 13.5622 52.7357 21.7934C52.7357 30.0246 57.0566 35.0491 63.9767 35.0491C67.4115 35.0491 70.4559 34.261 73.0093 32.5847V23.4698C74.0408 22.4812 75.6083 22.3354 76.9351 22.7774Z" fill="#2C2A29"/>
<path d="M94.0706 16.5683C90.0449 16.5683 88.032 16.8645 86.4145 17.7527V37.9594H82.6342V15.3839C85.3831 13.858 88.8681 13.1155 91.8623 13.1155C93.3344 13.1155 94.1705 13.3615 94.7567 13.5573C94.7567 14.6961 94.6113 15.8304 94.0706 16.5683Z" fill="#2C2A29"/>
<path d="M118.809 13.2661V35.8371C116.941 37.1671 111.544 38.1056 108.499 38.1056C102.756 38.1056 99.0758 35.9875 99.0758 30.0748V14.0041C100.203 13.462 101.384 13.2661 102.856 13.2661V29.5282C102.856 33.1268 104.969 34.753 109.385 34.753C111.498 34.753 113.461 34.4067 115.028 33.9648V13.9585C116.06 13.4164 117.532 13.2661 118.809 13.2661Z" fill="#2C2A29"/>
<path d="M146.887 26.0297C146.887 33.0765 143.452 38.4472 136.087 38.4472C133.779 38.4472 131.13 37.7092 129.167 36.5249V46.478C128.381 47.2159 126.518 47.758 125.387 47.758V14.4504C126.959 13.7626 130.149 13.0702 133.193 13.0702C141.685 13.0702 146.887 17.5069 146.887 26.0297ZM143.057 25.4376C143.057 20.3129 140.208 16.3227 133.438 16.3227C132.066 16.3227 130.639 16.5185 129.167 16.8647V34.1608C130.639 34.7029 132.457 35.1446 134.42 35.1446C139.768 35.1446 143.057 32.2885 143.057 25.4376Z" fill="#2C2A29"/>
<path d="M150.524 25.6383C150.524 17.9491 155.285 12.9749 162.356 12.9749C169.426 12.9749 174.188 18.0493 174.188 25.6383C174.188 33.2272 169.525 38.4521 162.356 38.4521C155.186 38.4521 150.524 33.4232 150.524 25.6383ZM170.353 25.6383C170.353 19.7758 167.408 16.373 162.351 16.373C157.294 16.373 154.4 19.7712 154.4 25.6383C154.4 31.8471 157.344 35.0494 162.351 35.0494C167.358 35.0494 170.353 31.8471 170.353 25.6383Z" fill="#2C2A29"/>
<path d="M18.9833 3.0625C8.50113 3.0625 0 11.5853 0 22.0941C0 32.6029 8.50113 41.1257 18.9833 41.1257C29.4654 41.1257 37.9666 32.6029 37.9666 22.0941C37.9666 11.5853 29.4654 3.0625 18.9833 3.0625ZM10.7139 12.8562C14.635 11.7265 18.7652 10.902 23.3543 10.3417C23.3951 10.3371 23.4406 10.3371 23.4815 10.3371C24.0131 10.3371 24.4992 10.6879 24.6901 11.2072C24.8082 11.526 24.9172 11.8221 25.0217 12.1137C25.2808 12.8197 25.5261 13.4848 25.8033 14.2637C25.9213 14.5917 25.8896 14.9424 25.7214 15.2158C25.567 15.4662 25.3217 15.6302 25.0263 15.6667C20.3419 16.3591 16.1345 17.2838 12.1587 18.5001C12.0315 18.541 11.8998 18.5638 11.768 18.5638C11.2591 18.5638 10.8366 18.2358 10.7093 17.7484C10.5639 17.1791 10.4185 16.6643 10.2822 16.1679C10.1323 15.6256 9.97781 15.0654 9.81878 14.4414C9.65066 13.7854 10.0596 13.0611 10.7139 12.8562ZM8.48296 28.5077C8.00587 28.5077 7.61966 28.1753 7.52425 27.6741C7.40611 27.0547 7.28343 26.5035 7.1653 25.966C7.03807 25.3965 6.91086 24.8136 6.78363 24.1484C6.67004 23.5473 7.00174 22.873 7.54242 22.6179C13.4264 20.026 20.0056 18.254 27.0892 17.3567C27.1345 17.3521 27.1755 17.3475 27.2208 17.3475C27.7252 17.3475 28.2069 17.7256 28.3886 18.2677C28.5203 18.6595 28.6475 19.0239 28.7657 19.3792C28.9747 19.9895 29.1746 20.5636 29.3881 21.2332C29.5018 21.5793 29.47 21.9347 29.3064 22.2034C29.1746 22.4221 28.9657 22.5633 28.7202 22.6043C21.3959 23.775 14.9349 25.6653 8.96912 28.3848C8.81464 28.4669 8.65106 28.5077 8.48296 28.5077ZM29.3881 29.7104C29.2701 29.9199 29.0747 30.0702 28.8475 30.1249C24.8673 31.0861 20.8325 32.3023 16.507 33.8464C16.3526 33.9057 16.189 33.9376 16.0254 33.9376C15.462 33.9376 14.9849 33.5913 14.844 33.0721C14.685 32.4982 14.5351 31.9788 14.3897 31.4778C14.2352 30.9449 14.0716 30.3936 13.9035 29.7787C13.7354 29.1637 14.0943 28.5033 14.7214 28.2754C18.5698 26.959 22.6227 25.8475 27.1209 24.8773C27.1891 24.8637 27.2527 24.8591 27.3209 24.8591C27.8342 24.8591 28.3204 25.2463 28.4977 25.802C28.6339 26.2348 28.7657 26.6356 28.8974 27.0273C29.0883 27.6104 29.2701 28.1571 29.4654 28.7903C29.5609 29.1091 29.5336 29.4461 29.3881 29.7104Z" fill="#2C2A29"/>
<path d="M199.775 38.0924C190.71 38.0924 185.103 32.0797 185.103 23.2563C185.103 14.4328 190.751 8.41998 199.775 8.41998C204.546 8.41998 208.312 10.2648 210.634 13.4671C210.153 15.7493 208.312 17.1523 206.695 17.6807C205.294 15.2209 202.973 13.95 199.512 13.95C194.959 13.95 191.892 17.2434 191.892 23.2563C191.892 29.2691 194.65 32.5625 199.775 32.5625C202.751 32.5625 205.158 31.0274 207.307 28.6541L210.547 33.0453C208.094 36.2522 204.328 38.0924 199.775 38.0924Z" fill="#2C2A29"/>
<path d="M214.135 8.93898C214.135 7.09413 215.667 5.55902 217.507 5.55902C219.346 5.55902 220.924 7.05312 220.924 8.93898C220.924 10.8248 219.392 12.3189 217.507 12.3189C215.621 12.3189 214.135 10.8248 214.135 8.93898ZM214.222 15.8765C215.14 15.4802 216.279 15.2616 217.547 15.2616C218.815 15.2616 219.91 15.4802 220.832 15.8765V37.6504H214.222V15.8765Z" fill="#2C2A29"/>
<path d="M247.196 25.4924C247.196 33.4823 242.466 38.0921 234.76 38.0921C230.994 38.0921 227.359 37.3907 225.168 36.3793V9.4673C226.699 8.32394 230.071 7.36279 231.779 7.36279V17.7668C233.661 16.1406 235.941 15.266 237.995 15.266C244.52 15.266 247.191 19.7894 247.191 25.497M240.671 26.326C240.671 22.2857 238.568 20.8371 235.196 20.8371C233.838 20.8371 232.743 21.1012 231.779 21.5386V32.5576C232.961 32.7352 234.1 32.8217 235.151 32.8217C239.003 32.8217 240.667 29.8381 240.667 26.326" fill="#2C2A29"/>
<path d="M269.965 28.1254H256.04C256.389 31.2001 257.966 32.9539 261.074 32.9539C263.568 32.9539 266.021 32.5165 267.903 31.9016C268.821 32.9128 269.393 34.2294 269.566 36.6436C267.026 37.5637 264.09 38.1786 260.151 38.1786C253.803 38.1786 249.377 34.4481 249.377 27.4239C249.377 20.0489 253.712 15.2205 260.37 15.2205C266.366 15.2205 270.22 19.0833 270.22 25.3194C270.22 26.3306 270.133 27.0777 269.955 28.13M256.125 24.2626H263.35V24.217C263.35 21.3199 261.905 19.6072 259.933 19.6072C257.961 19.6072 256.562 20.7915 256.125 24.2626Z" fill="#2C2A29"/>
<path d="M279.023 33.0407C280.685 33.0407 282.222 32.4258 282.222 31.3279C282.222 30.2301 281.214 29.7017 278.805 29.0457C274.866 28.0345 272.807 25.6658 272.807 22.591C272.807 17.5849 276.879 15.0841 282.88 15.0841C285.024 15.0841 287.525 15.567 288.528 16.0042C288.528 17.6714 287.914 19.9536 286.952 21.2291C285.507 20.7007 284.106 20.3955 282.926 20.3955C280.781 20.3955 279.422 20.9238 279.422 22.1082C279.422 22.9873 280.517 23.7344 282.661 24.4769C286.865 25.8798 289.009 27.3284 289.009 30.7085C289.009 35.7146 285.243 38.1698 279.113 38.1698C276.838 38.1698 275.478 37.9922 273.025 37.6005C272.761 36.6802 272.63 35.7556 272.63 34.7899C272.63 33.6465 272.802 32.6809 273.157 31.8473C275.565 32.6352 277.491 33.0315 279.023 33.0315" fill="#2C2A29"/>
<path d="M305.558 32.1659C306.258 33.2182 306.476 34.9763 306.476 37.5228C305.645 37.8735 303.673 38.1378 301.746 38.1378C296.403 38.1378 293.953 36.6027 293.953 31.5099V20.9282H290.669C290.669 16.5825 296.012 10.8749 300.519 9.82263V15.6624H306.998C306.998 17.2431 306.517 19.7894 305.376 20.9328H300.515V29.8883C300.515 31.9973 301.042 32.6076 303.009 32.6076C303.973 32.6076 304.672 32.43 305.549 32.1705" fill="#2C2A29"/>
</svg>
