<svg width="36" height="36" viewBox="0 0 36 36" fill="none" xmlns="http://www.w3.org/2000/svg">
<rect width="36" height="36" rx="18" fill="#2C2A29"/>
<circle cx="23.0781" cy="18.5784" r="6.50893" stroke="white" stroke-width="0.482143"/>
<path fill-rule="evenodd" clip-rule="evenodd" d="M25.3621 15.963C25.4707 15.8584 25.643 15.8592 25.7506 15.9648L27.7021 18.3348C27.8382 18.4682 27.8368 18.6877 27.6991 18.8194L25.7848 21.2084C25.7376 21.2535 25.6749 21.2787 25.6095 21.2787L24.0022 21.2787C23.7757 21.2787 23.663 21.0044 23.8242 20.8454L25.7857 18.5787L24.0022 16.3849H23.2868L24.9925 18.3349C25.1316 18.4677 25.1318 18.6897 24.9927 18.8227L22.7516 21.2084C22.7044 21.2535 22.6417 21.2787 22.5764 21.2787H20.0406C19.4815 21.2787 19.0282 20.8256 19.0282 20.2665C19.028 19.1414 19.0281 18.0163 19.0282 16.8911C19.0283 16.3319 19.4816 15.8787 20.0408 15.8787H21.048C21.1879 15.8787 21.3014 15.992 21.3014 16.1318C21.3014 16.2716 21.1879 16.3849 21.048 16.3849H20.2101C19.8373 16.3849 19.5351 16.6871 19.5351 17.0599C19.5351 18.0724 19.5351 19.0849 19.5351 20.0974C19.5351 20.4702 19.8373 20.7724 20.2101 20.7724H22.3888L24.4342 18.5787L22.4727 16.3119C22.3115 16.153 22.4242 15.8787 22.6507 15.8787H24.2174C24.2827 15.8787 24.3454 15.9038 24.3926 15.949L26.3442 18.3346C26.4832 18.4676 26.4831 18.6896 26.3439 18.8224L24.6382 20.7724H25.3986L27.1372 18.5787L25.3621 16.3849C25.2508 16.275 25.2494 16.0715 25.3621 15.963Z" fill="#FAFAFA"/>
<path d="M20.4093 10.9285L8.22822 10.9286C7.23411 10.9286 6.42822 11.7345 6.42822 12.7286V21.6227C6.42822 22.6753 7.28152 23.5286 8.33411 23.5286H16.6663C16.3421 23.1093 16.0582 22.6574 15.8202 22.1786H8.69274C8.18767 22.1786 7.77822 21.7691 7.77822 21.264V13.1786C7.77822 12.6816 8.18117 12.2786 8.67822 12.2786L17.9866 12.2785C18.7033 11.6985 19.5211 11.2383 20.4093 10.9285Z" fill="white"/>
<path d="M8.69274 22.1786H15.8202C15.038 20.3047 14.3761 15.7013 17.9866 12.2785L8.67822 12.2786C8.18117 12.2786 7.77822 12.6816 7.77822 13.1786V21.264C7.77822 21.7691 8.18767 22.1786 8.69274 22.1786Z" fill="white"/>
<rect x="13.1782" y="17.6785" width="3.6" height="3.6" rx="0.9" transform="rotate(-180 13.1782 17.6785)" fill="#2C2A29"/>
</svg>
